SplineFontDB: 3.0
FontName: NachlieliCLM-BoldOblique
FullName: Nachlieli CLM Bold Oblique
FamilyName: Nachlieli CLM
Weight: Bold
Copyright: Copyright (c) 2002-2017 by Maxim Iorsh (iorsh@users.sourceforge.net). Distributed under the terms of GNU General Public License version 2(http://www.gnu.org/licenses/gpl.html). \nLatin glyphs, digits and punctuation copyright 1999 by (URW)++ Design & Development. \nAll rights reserved.
UComments: "2002-7-16: Created." 
Version: 0.131
ItalicAngle: -12
UnderlinePosition: -140
UnderlineWidth: 70
Ascent: 872
Descent: 218
LayerCount: 2
Layer: 0 0 "Back"  1
Layer: 1 0 "Fore"  0
FSType: 0
OS2Version: 0
OS2_WeightWidthSlopeOnly: 0
OS2_UseTypoMetrics: 0
CreationTime: 1163025778
ModificationTime: 1493835357
PfmFamily: 33
TTFWeight: 600
TTFWidth: 5
LineGap: 90
VLineGap: 0
Panose: 2 0 6 3 0 0 0 0 0 0
OS2TypoAscent: 0
OS2TypoAOffset: 1
OS2TypoDescent: 0
OS2TypoDOffset: 1
OS2TypoLinegap: 0
OS2WinAscent: 0
OS2WinAOffset: 1
OS2WinDescent: 0
OS2WinDOffset: 1
HheadAscent: 0
HheadAOffset: 1
HheadDescent: 0
HheadDOffset: 1
OS2Vendor: 'PfEd'
Lookup: 6 1 0 "ccmpAltAyin"  {"ccmpAltAyin subtable"  } ['ccmp' ('hebr' <'dflt' > ) ]
Lookup: 1 1 0 "Single Substitution lookup 11"  {"Single Substitution lookup 11 subtable"  } []
Lookup: 6 1 0 "ccmpVavHolam"  {"ccmpVavHolam subtable"  } ['ccmp' ('hebr' <'dflt' > ) ]
Lookup: 1 1 0 "salt MiscSAlt"  {"MiscSAlt"  } ['salt' ('hebr' <'dflt' > ) ]
Lookup: 4 1 0 "ccmp AlephLamed2"  {"AlephLamed2"  } ['ccmp' ('hebr' <'JUD ' > ) ]
Lookup: 4 1 0 "dlig AlephLamed"  {"AlephLamed"  } ['dlig' ('hebr' <'dflt' > ) ]
Lookup: 4 1 0 "ccmp CustomPrecomp"  {"CustomPrecomp"  } ['ccmp' ('hebr' <'dflt' > ) ]
Lookup: 1 1 0 "jalt WideLetters"  {"WideLetters"  } ['jalt' ('hebr' <'dflt' > ) ]
Lookup: 1 1 0 "ccmp Yiddish2"  {"Yiddish2"  } ['ccmp' ('hebr' <'JII ' > ) ]
Lookup: 4 1 0 "ccmp Yiddish_dflt"  {"Yiddish_dflt"  } ['ccmp' ('hebr' <'dflt' > ) ]
Lookup: 4 1 0 "ccmp Yiddish"  {"Yiddish"  } ['ccmp' ('hebr' <'JII ' > ) ]

StartChar: .notdef
Encoding: 65536 -1 0
Width: 736
VWidth: 1000
Flags: W
HStem: -80 90<88.126 524.126> 590 90<211.408 647.408>
LayerCount: 2
Fore
SplineSet
211.408 590 m 1
 88.126 10 l 1
 524.126 10 l 5
 647.408 590 l 5
 211.408 590 l 1
140.538 680 m 1
 756.538 680 l 5
 594.995 -80 l 5
 -21.0049 -80 l 1
 140.538 680 l 1
EndSplineSet
Validated: 1
EndChar

StartChar: exclam
Encoding: 33 33 2
Width: 350
VWidth: 1000
Flags: W
HStem: 0 146<67.0332 186>
VStem: 36 304.316
LayerCount: 2
Fore
SplineSet
340.316 726 m 1
 295.68 516 l 1
 187.999 207 l 1
 120.999 207 l 1
 145.679 516 l 1
 190.316 726 l 1
 340.316 726 l 1
217.033 146 m 1
 186 0 l 1
 36 0 l 1
 67.0332 146 l 1
 217.033 146 l 1
EndSplineSet
Validated: 1
EndChar

StartChar: quotedbl
Encoding: 34 34 3
Width: 434
VWidth: 1000
Flags: W
HStem: 459.1 259<123.637 144.585 354.637 375.585>
LayerCount: 2
Fore
SplineSet
487.637 718.1 m 5
 460.005 588.1 l 5
 375.585 459.1 l 1
 299.585 459.1 l 9
 354.637 718.1 l 17
 487.637 718.1 l 5
256.637 718.1 m 1
 229.005 588.1 l 1
 144.585 459.1 l 1
 68.585 459.1 l 9
 123.637 718.1 l 17
 256.637 718.1 l 1
EndSplineSet
Validated: 1
Comment: "%DiaToBase1+AD0A-190+AAoA%DiaToBase2+AD0A-190+AAoA%DiaToBase3+AD0A-190+AAoA%DiaToBaseO+AD0A-0+AAoA%DiaToBaseU+AD0A-190+AAoA" 
EndChar

StartChar: numbersign
Encoding: 35 35 4
Width: 578
VWidth: 1000
Flags: W
HStem: -8 21G<-14.7002 99.4725 194.3 307.473> 196 99<12.7041 68.6611 214.704 277.661 422.704 501.661> 448 99<94.2686 172.226 318.269 380.226 526.269 595.226> 701 20G<276.094 389.253 484.094 597.253>
LayerCount: 2
Fore
SplineSet
91.2998 -8 m 1
 -14.7002 -8 l 1
 68.6611 196 l 1
 -8.33887 196 l 1
 12.7041 295 l 1
 109.704 295 l 1
 172.226 448 l 1
 73.2256 448 l 1
 94.2686 547 l 1
 213.269 547 l 1
 284.253 721 l 1
 389.253 721 l 1
 318.269 547 l 1
 421.269 547 l 1
 492.253 721 l 1
 597.253 721 l 1
 526.269 547 l 1
 616.269 547 l 1
 595.226 448 l 1
 486.226 448 l 1
 422.704 295 l 1
 522.704 295 l 1
 501.661 196 l 1
 382.661 196 l 1
 299.3 -8 l 1
 194.3 -8 l 1
 277.661 196 l 1
 174.661 196 l 1
 91.2998 -8 l 1
214.704 295 m 1
 317.704 295 l 1
 380.226 448 l 1
 277.226 448 l 1
 214.704 295 l 1
EndSplineSet
Validated: 1
EndChar

StartChar: dollar
Encoding: 36 36 5
Width: 655
VWidth: 1000
Flags: W
HStem: 608 101<300.483 358.234 447.702 470.301>
VStem: 50.0859 132.913<104.634 207>
LayerCount: 2
Fore
SplineSet
608.854 498 m 1
 480.854 498 l 1
 495.819 559 475.746 601 426.234 608 c 1
 383.511 407 l 1
 529.371 364 577.83 305 554.448 195 c 0
 538.507 120 492.69 55 431.251 20 c 0
 393.787 -1 348.812 -15 292.536 -21 c 1
 270.218 -126 l 1
 202.218 -126 l 1
 224.536 -21 l 1
 165.812 -15 131.575 -2 99.3135 25 c 0
 51.8164 65 34.5693 125 50.0859 198 c 2
 51.999 207 l 1
 182.999 207 l 1
 171.12 137 193.405 96 247.28 86 c 1
 292.555 299 l 1
 164.144 330 110.235 401 133.829 512 c 0
 157.636 624 248.152 697 379.702 709 c 1
 391.181 763 l 1
 459.181 763 l 1
 447.702 709 l 1
 572.215 702 633.423 623 608.854 498 c 1
319.762 427 m 1
 358.234 608 l 1
 300.896 597 268.52 567 257.68 516 c 0
 248.327 472 267.588 445 319.762 427 c 1
356.941 282 m 1
 315.28 86 l 1
 374.256 100 409.27 133 419.897 183 c 0
 430.101 231 409.327 265 356.941 282 c 1
EndSplineSet
Validated: 33
EndChar

StartChar: percent
Encoding: 37 37 6
Width: 889
VWidth: 1000
Flags: W
HStem: -22.3672 90.0996<543.547 657.845> 0 21G<50.1885 184.177> 228.533 90.1<567.625 680.554> 365.633 90.2<234.567 347.059> 617.433 90.2<256.785 369.728>
LayerCount: 2
Fore
SplineSet
648.593 318.633 m 0xb8
 744.593 318.633 803.438 242.633 783.033 146.633 c 0
 763.478 54.6328 669.11 -22.3672 577.11 -22.3672 c 0
 483.11 -22.3672 422.478 54.6328 442.458 148.633 c 0
 462.226 241.633 555.593 318.633 648.593 318.633 c 0xb8
629.541 228.533 m 0
 585.541 228.533 541.089 192.533 531.736 148.533 c 0
 522.214 103.732 551.362 67.7324 596.162 67.7324 c 0
 640.162 67.7324 684.614 103.732 693.797 146.933 c 0
 703.489 192.533 675.142 228.533 629.541 228.533 c 0
337.777 707.633 m 0
 433.777 707.633 492.623 631.633 472.005 534.633 c 0
 452.449 442.633 359.083 365.633 266.083 365.633 c 0
 172.083 365.633 111.45 442.633 131.43 536.633 c 0
 151.41 630.633 244.777 707.633 337.777 707.633 c 0
318.704 617.433 m 4
 274.704 617.433 230.252 581.433 220.729 536.633 c 4
 211.377 492.633 240.355 455.833 285.155 455.833 c 4
 329.155 455.833 373.607 491.833 382.96 535.833 c 4
 392.652 581.433 364.305 617.433 318.704 617.433 c 4
763.708 708.749 m 1
 877.86 708.748 l 1
 164.034 0 l 1x78
 50.1885 0.00390625 l 1
 763.708 708.749 l 1
EndSplineSet
Validated: 33
EndChar

StartChar: ampersand
Encoding: 38 38 7
Width: 722
VWidth: 1000
Flags: W
HStem: -23 116<196.253 325.807> 0 21G<456.823 630> 614 109<331.027 429.077>
VStem: 539.158 112.787<296.626 373>
LayerCount: 2
Fore
SplineSet
541.283 373 m 1xb0
 654.283 373 l 1
 651.945 362 l 1
 650.883 357 l 1
 632.729 281 589.512 200 539.733 154 c 1
 630 0 l 1
 469 0 l 1x70
 434.903 56 l 1
 340.938 -5 291.111 -23 223.111 -23 c 0
 81.1113 -23 4.39062 63 32.0234 193 c 0
 52.0039 287 103.27 340 233.235 401 c 1
 228.936 409 225.998 414 224.424 416 c 2
 203.65 450 l 2
 182.665 483 176.316 519 184.182 556 c 0
 204.162 650 301.679 723 408.679 723 c 0
 515.679 723 573.5 661 553.732 568 c 0
 538.428 496 501.288 453 399.322 392 c 1
 484.714 248 l 1
 515.642 290 530.018 320 539.158 363 c 2
 541.283 373 l 1xb0
281.806 319 m 1
 228.642 290 l 2
 197.815 272 175.651 243 168.637 210 c 0
 155.884 150 195.768 93 249.768 93 c 0xb0
 280.768 93 326.807 112 381.458 148 c 1
 281.806 319 l 1
352.901 470 m 1
 397.578 492 423.742 521 431.182 556 c 0
 439.046 593 422.51 614 386.51 614 c 0
 352.51 614 324.259 594 318.307 566 c 0
 312.993 541 316.293 533 352.901 470 c 1
EndSplineSet
Validated: 33
EndChar

StartChar: quotesingle
Encoding: 39 39 8
Width: 223
VWidth: 1000
Flags: W
HStem: 459.1 259<133.637 154.585>
VStem: 78.585 188.052
LayerCount: 2
Fore
SplineSet
266.637 718.1 m 5
 239.005 588.1 l 5
 154.585 459.1 l 1
 78.585 459.1 l 9
 133.637 718.1 l 17
 266.637 718.1 l 5
EndSplineSet
Validated: 1
EndChar

StartChar: parenleft
Encoding: 40 40 9
Width: 338
VWidth: 1030
Flags: W
LayerCount: 2
Fore
SplineSet
302.881 771 m 1
 407.881 771 l 5
 257.882 564 199.438 449 167.979 301 c 0
 136.309 152 146.29 39 207.865 -170 c 1
 102.865 -170 l 1
 25.0625 5 6.82031 145 39.9795 301 c 0
 72.9258 456 150.684 596 302.881 771 c 1
EndSplineSet
Validated: 33
EndChar

StartChar: parenright
Encoding: 41 41 10
Width: 338
VWidth: 1030
Flags: W
LayerCount: 2
Fore
SplineSet
26.8652 -170 m 1
 -78.1348 -170 l 1
 71.8643 37 130.309 152 161.767 300 c 0
 193.438 449 183.457 562 121.881 771 c 5
 226.881 771 l 1
 304.684 596 322.926 456 289.767 300 c 0
 256.82 145 179.062 5 26.8652 -170 c 1
EndSplineSet
Validated: 33
EndChar

StartChar: asterisk
Encoding: 42 42 11
Width: 580
VWidth: 1000
Flags: W
LayerCount: 2
Fore
SplineSet
233.13 359.1 m 5
 111.512 402.3 l 5
 155.511 485.1 l 5
 277.129 441.899 l 5
 306.717 581.1 l 5
 393.117 581.1 l 5
 363.529 441.899 l 5
 503.511 485.1 l 5
 512.058 401.1 l 5
 372.329 359.1 l 5
 428.753 246.3 l 5
 348.186 194.699 l 5
 291.761 307.499 l 5
 187.385 194.699 l 5
 128.753 246.3 l 5
 233.13 359.1 l 5
EndSplineSet
Validated: 1
EndChar

StartChar: plus
Encoding: 43 43 12
Width: 663
VWidth: 1000
Flags: W
HStem: 280 119<110.811 267.516 411.811 568.516>
LayerCount: 2
Fore
SplineSet
593.811 399 m 1
 568.516 280 l 1
 386.516 280 l 1
 347.83 98 l 1
 228.83 98 l 1
 267.516 280 l 1
 85.5156 280 l 1
 110.811 399 l 5
 292.811 399 l 1
 331.495 581 l 1
 450.495 581 l 1
 411.811 399 l 1
 593.811 399 l 1
EndSplineSet
Validated: 1
Substitution2: "MiscSAlt" uniFB29
EndChar

StartChar: comma
Encoding: 44 44 13
Width: 298
VWidth: 1000
Flags: W
HStem: -149 279
VStem: -15.6709 197.304
LayerCount: 2
Fore
SplineSet
181.633 130 m 5
 149.749 -20 l 1
 38.3291 -149 l 1
 -15.6709 -149 l 9
 43.6328 130 l 21
 181.633 130 l 5
EndSplineSet
Validated: 1
EndChar

StartChar: hyphen
Encoding: 45 45 14
Width: 551
VWidth: 1000
Flags: W
HStem: 212 110<89.4434 447.062>
LayerCount: 2
Fore
SplineSet
66.0615 212 m 5
 89.4434 322 l 1
 470.443 322 l 1
 447.062 212 l 5
 66.0615 212 l 5
EndSplineSet
Validated: 1
EndChar

StartChar: period
Encoding: 46 46 15
Width: 289
VWidth: 1000
Flags: W
HStem: 0 146<34.0332 153>
VStem: 3 181.033
LayerCount: 2
Fore
SplineSet
184.033 146 m 1
 153 0 l 1
 3 0 l 1
 34.0332 146 l 1
 184.033 146 l 1
EndSplineSet
Validated: 1
EndChar

StartChar: slash
Encoding: 47 47 16
Width: 298
VWidth: 1000
Flags: W
HStem: -14 21G<-64.9756 31.9349> 694 20G<285.855 382.766>
LayerCount: 2
Fore
SplineSet
295.766 714 m 1
 382.766 714 l 5
 22.0244 -14 l 5
 -64.9756 -14 l 1
 295.766 714 l 1
EndSplineSet
Validated: 1
EndChar

StartChar: zero
Encoding: 48 48 17
Width: 556
VWidth: 1000
Flags: W
HStem: -23 120<176.33 294.185> 611 113<275.928 393.014>
LayerCount: 2
Fore
SplineSet
362.891 724 m 0
 445.891 724 507.026 687 534.572 619 c 0
 556.882 564 554.177 476 526.545 346 c 0
 498.487 214 458.932 122 407.454 68 c 0
 350.7 8 281.111 -23 204.111 -23 c 0
 121.111 -23 60.1885 15 32.4297 82 c 0
 10.9072 136 12.8252 225 39.3945 350 c 0
 68.5146 487 106.857 578 159.548 633 c 0
 215.089 692 286.891 724 362.891 724 c 0
338.872 611 m 0
 298.872 611 263.771 587 238.631 544 c 0
 222.467 515 197.25 434 179.607 351 c 0
 159.627 257 151.686 182 159.309 152 c 0
 168.656 116 192.618 97 229.618 97 c 0
 269.618 97 304.507 120 329.435 162 c 0
 345.386 190 370.391 270 387.183 349 c 0
 407.8 446 416.38 524 408.756 554 c 0
 399.621 591 374.872 611 338.872 611 c 0
EndSplineSet
Validated: 33
EndChar

StartChar: one
Encoding: 49 49 18
Width: 556
VWidth: 1000
Flags: W
HStem: 0 21G<174 318.251> 489 93<127.708 260.649> 689 20G<351.775 464.702>
VStem: 371.702 93<673.104 709>
LayerCount: 2
Fore
SplineSet
277.94 489 m 1
 107.94 489 l 1
 127.708 582 l 1
 249.708 582 331.848 625 371.702 709 c 1
 464.702 709 l 1
 314 0 l 1
 174 0 l 1
 277.94 489 l 1
EndSplineSet
Validated: 1
EndChar

StartChar: two
Encoding: 50 50 19
Width: 556
VWidth: 1000
Flags: W
HStem: 0 125<174.569 448> 610 114<270.826 401.964>
LayerCount: 2
Fore
SplineSet
474.569 125 m 1
 448 0 l 1
 -34 0 l 1
 0.844727 131 51.2363 194 188.666 276 c 1
 368.26 387 399.849 418 416.428 496 c 0
 431.52 567 402.659 610 340.659 610 c 0
 276.659 610 229.882 564 213.09 485 c 2
 208.201 462 l 1
 74.2012 462 l 1
 75.5391 473 77.2393 481 78.5146 487 c 0
 110.398 637 214.891 724 361.891 724 c 0
 510.891 724 586.186 636 557.065 499 c 0
 536.66 403 489.183 349 347.052 259 c 0
 226.897 183 200.646 163 174.569 125 c 1
 474.569 125 l 1
EndSplineSet
Validated: 33
EndChar

StartChar: three
Encoding: 51 51 20
Width: 556
VWidth: 1000
Flags: W
HStem: -23 120<163.96 299.745> 317 94<240.36 331.11> 611 113<259.382 389.186>
VStem: 9.21191 136<117.354 208>
LayerCount: 2
Fore
SplineSet
220.381 317 m 1
 240.36 411 l 1
 252.36 411 l 2
 335.36 411 384.013 447 399.104 518 c 0
 411.646 577 386.872 611 330.872 611 c 0
 289.872 611 253.834 592 234.244 561 c 0
 223.418 543 216.38 524 207.303 486 c 1
 77.3027 486 l 1
 79.8535 498 l 2
 93.2441 561 116.447 609 151.887 644 c 0
 202.939 696 276.891 724 357.891 724 c 0
 494.891 724 566.949 649 541.867 531 c 0
 528.052 466 491.486 421 416.771 380 c 1
 488.481 341 513.004 287 495.361 204 c 0
 466.028 66 350.111 -23 199.111 -23 c 0
 54.1113 -23 -19.9717 66 9.21191 208 c 1
 145.212 208 l 1
 133.695 135 161.618 97 227.618 97 c 0
 288.618 97 342.183 142 355.361 204 c 0
 366.414 256 345.129 297 300.893 310 c 0
 278.168 316 269.381 317 220.381 317 c 1
EndSplineSet
Validated: 33
EndChar

StartChar: four
Encoding: 52 52 21
Width: 556
VWidth: 1000
Flags: W
HStem: 0 21G<244 388.251> 157 116<117.028 277.371 442.028 491.371> 689 20G<353.515 534.702>
LayerCount: 2
Fore
SplineSet
516.028 273 m 1
 491.371 157 l 1
 417.371 157 l 1
 384 0 l 1
 244 0 l 1
 277.371 157 l 1
 -6.62891 157 l 1
 18.4531 275 l 1
 369.702 709 l 1
 534.702 709 l 1
 442.028 273 l 1
 516.028 273 l 1
302.028 273 m 1
 366.433 576 l 1
 117.028 273 l 1
 302.028 273 l 1
EndSplineSet
Validated: 1
EndChar

StartChar: five
Encoding: 53 53 22
Width: 556
VWidth: 1000
Flags: W
HStem: -23 120<154.319 294.897> 368 111<235.702 340.931> 584 125<256.133 549.133>
VStem: 2.32324 138<114.757 185>
LayerCount: 2
Fore
SplineSet
575.702 709 m 1
 549.133 584 l 1
 256.133 584 l 1
 201.675 436 l 1
 249.264 467 286.814 479 333.814 479 c 0
 464.814 479 533.559 379 502.738 234 c 0
 470.217 81 344.111 -23 192.111 -23 c 0
 54.1113 -23 -22.0342 61 2.32324 185 c 1
 140.323 185 l 1
 131.207 128 158.618 97 219.618 97 c 0
 289.618 97 344.458 148 362.101 231 c 0
 380.381 317 348.221 368 277.221 368 c 0
 234.221 368 198.183 349 175.743 314 c 1
 49.7432 314 l 1
 196.702 709 l 1
 575.702 709 l 1
EndSplineSet
Validated: 33
EndChar

StartChar: six
Encoding: 54 54 23
Width: 556
VWidth: 1000
Flags: W
HStem: -23 120<175.061 302.418> 357 110<250.482 411.339> 611 113<284.45 413.113>
LayerCount: 2
Fore
SplineSet
559.481 548 m 1
 429.481 548 l 1
 421.046 593 400.872 611 355.872 611 c 0
 299.872 611 251.795 573 225.191 509 c 0
 212.814 479 212.814 479 193.873 404 c 1
 247.65 450 290.264 467 348.264 467 c 0
 470.264 467 534.283 373 505.376 237 c 0
 472.643 83 354.111 -23 213.111 -23 c 0
 129.111 -23 63.4014 16 36.4297 82 c 0
 12.5449 139 13.6992 215 39.6318 337 c 0
 67.0518 466 100.844 545 157.51 614 c 0
 215.602 685 295.891 724 383.891 724 c 4
 460.891 724 519.515 694 545.674 643 c 0
 558.147 617 562.259 594 559.481 548 c 1
290.883 357 m 0
 225.883 357 170.404 303 153.825 225 c 0
 137.884 150 170.618 97 234.618 97 c 0
 296.618 97 354.309 152 370.463 228 c 0
 387.042 306 355.883 357 290.883 357 c 0
EndSplineSet
Validated: 33
EndChar

StartChar: seven
Encoding: 55 55 24
Width: 556
VWidth: 1000
Flags: W
HStem: 0 21G<69 240.306> 584 125<115.702 442.133>
VStem: 69 141<0 61.6973>
LayerCount: 2
Fore
SplineSet
614.702 709 m 1
 591.321 599 l 1
 380.173 396 270.612 224 210 0 c 1
 69 0 l 1
 120.096 151 164.864 244 235.757 347 c 0
 276.936 409 389.355 538 442.133 584 c 1
 89.1328 584 l 1
 115.702 709 l 1
 614.702 709 l 1
EndSplineSet
Validated: 1
EndChar

StartChar: eight
Encoding: 56 56 25
Width: 556
VWidth: 1000
Flags: W
HStem: -23 120<164.01 305.123> 330 95<234.539 344.952> 611 113<263.496 406.567>
LayerCount: 2
Fore
SplineSet
427.047 386 m 1
 499.694 342 522.217 288 504.361 204 c 0
 475.879 70 353.111 -23 205.111 -23 c 0
 56.1113 -23 -27.1211 70 1.36133 204 c 0
 19.2158 288 64.6943 342 156.047 386 c 1
 99.2734 420 80.4141 463 94.8672 531 c 0
 118.674 643 231.891 724 363.891 724 c 4
 494.891 724 573.674 643 550.08 532 c 0
 540.303 486 514.162 443 479.424 416 c 0
 466.298 406 453.811 399 427.047 386 c 1
340.872 611 m 0
 277.872 611 226.795 573 215.316 519 c 0
 203.626 464 239.337 425 301.337 425 c 0
 362.337 425 414.626 464 426.104 518 c 0
 437.795 573 402.872 611 340.872 611 c 0
279.144 330 m 0
 212.144 330 158.366 284 143.062 212 c 0
 128.183 142 161.618 97 229.618 97 c 0
 297.618 97 351.183 142 365.637 210 c 0
 381.366 284 348.144 330 279.144 330 c 0
EndSplineSet
Validated: 33
EndChar

StartChar: nine
Encoding: 57 57 26
Width: 556
VWidth: 1000
Flags: W
HStem: -24 120<156.493 286.668> 228 116<216.372 317.806> 610 114<262.039 390.978>
LayerCount: 2
Fore
SplineSet
9.07227 165 m 1
 144.072 165 l 1
 138.145 123 166.405 96 215.405 96 c 0
 294.405 96 346.646 163 375.342 298 c 1
 346.815 272 336.902 263 321.989 254 c 0
 296.589 238 260.463 228 224.463 228 c 0
 98.4629 228 33.7188 328 64.752 474 c 0
 96.21 622 214.891 724 356.891 724 c 0
 441.891 724 503.389 684 532.234 608 c 0
 552.969 555 552.539 473 530.646 370 c 0
 506.414 256 461.671 149 411.28 86 c 0
 353.976 14 276.898 -24 185.898 -24 c 0
 63.8984 -24 -11.0967 56 9.07227 165 c 1
328.659 610 m 0
 266.659 610 215.606 558 198.177 476 c 0
 180.96 395 210.119 344 274.119 344 c 0
 338.119 344 393.173 396 409.752 474 c 0
 427.394 557 396.659 610 328.659 610 c 0
EndSplineSet
Validated: 33
EndChar

StartChar: colon
Encoding: 58 58 27
Width: 330
VWidth: 1000
Flags: W
HStem: 0 146<57.0332 176> 374 146<136.529 255.496>
VStem: 26 260.529
LayerCount: 2
Fore
SplineSet
207.033 146 m 1
 176 0 l 1
 26 0 l 1
 57.0332 146 l 1
 207.033 146 l 1
286.529 520 m 1
 255.496 374 l 1
 105.496 374 l 1
 136.529 520 l 1
 286.529 520 l 1
EndSplineSet
Validated: 1
EndChar

StartChar: semicolon
Encoding: 59 59 28
Width: 330
VWidth: 1000
Flags: W
HStem: 374 146<136.529 255.496>
VStem: 5.77051 280.758
LayerCount: 2
Fore
SplineSet
200.948 145.6 m 1
 171.19 5.59961 l 5
 59.7705 -123.4 l 5
 5.77051 -123.4 l 13
 62.9482 145.6 l 17
 200.948 145.6 l 1
286.529 520 m 1
 255.496 374 l 1
 105.496 374 l 1
 136.529 520 l 1
 286.529 520 l 1
EndSplineSet
Validated: 1
EndChar

StartChar: less
Encoding: 60 60 29
Width: 669
VWidth: 1000
Flags: W
LayerCount: 2
Fore
SplineSet
638.708 582 m 1
 615.539 473 l 1
 205.27 340 l 1
 559.424 209 l 1
 535.83 98 l 1
 85.5156 280 l 1
 111.235 401 l 1
 638.708 582 l 1
EndSplineSet
Validated: 1
EndChar

StartChar: equal
Encoding: 61 61 30
Width: 664
VWidth: 1000
Flags: W
HStem: 160 119<85.3037 544.009> 400 119<136.316 595.022>
LayerCount: 2
Fore
SplineSet
620.316 519 m 1
 595.022 400 l 1
 111.022 400 l 1
 136.316 519 l 1
 620.316 519 l 1
569.304 279 m 1
 544.009 160 l 1
 60.0088 160 l 1
 85.3037 279 l 1
 569.304 279 l 1
EndSplineSet
Validated: 1
EndChar

StartChar: greater
Encoding: 62 62 31
Width: 669
VWidth: 1000
Flags: W
LayerCount: 2
Fore
SplineSet
46.8301 98 m 1
 69.999 207 l 1
 480.27 340 l 1
 126.114 471 l 1
 149.708 582 l 1
 600.022 400 l 1
 574.304 279 l 1
 46.8301 98 l 1
EndSplineSet
Validated: 1
EndChar

StartChar: question
Encoding: 63 63 32
Width: 641
VWidth: 1000
Flags: W
HStem: 0 146<202.033 321> 626 118<309.557 436.184>
VStem: 102.239 136<481 548.83>
LayerCount: 2
Fore
SplineSet
347.724 201 m 1
 223.724 201 l 1
 238.791 286 271.356 331 364.811 399 c 1
 434.013 447 450.052 466 459.616 511 c 0
 473.433 576 439.061 626 379.061 626 c 0
 313.061 626 251.882 564 238.665 483 c 1
 238.239 481 l 1
 102.239 481 l 1
 120.669 563 143.872 611 186.225 655 c 0
 241.766 714 315.143 744 401.143 744 c 0
 548.143 744 630.162 650 601.254 514 c 0
 583.399 430 547.047 386 440.019 320 c 0
 371.091 278 361.753 267 347.724 201 c 1
352.033 146 m 1
 321 0 l 1
 171 0 l 1
 202.033 146 l 1
 352.033 146 l 1
EndSplineSet
Validated: 33
EndChar

StartChar: at
Encoding: 64 64 33
Width: 975
VWidth: 1000
Flags: W
HStem: -138 78<276.351 573.5> -39 20G<593.198 628.381> 56 81<360.039 462.847 623.888 728.643> 447 71<472.475 594.838> 668 77<454.133 719.893>
LayerCount: 2
Fore
SplineSet
687.979 508 m 1
 777.979 508 l 1
 640.463 228 l 1
 626.086 198 626.086 198 623.535 186 c 0
 617.159 156 632.12 137 662.12 137 c 0
 697.12 137 745.072 165 787.424 209 c 0
 830.202 255 860.317 312 872.646 370 c 0
 889.438 449 871.892 517 818.433 576 c 0
 761.611 638 686.988 668 588.988 668 c 0
 472.988 668 367.848 625 278.206 542 c 0
 197.264 467 137.796 366 116.54 266 c 0
 95.2842 166 117.43 82 182.464 21 c 0
 238.411 -31 318.247 -60 409.247 -60 c 0
 481.246 -60 561.435 -45 624.961 -19 c 1
 637.445 -92 l 1
 560.643 -124 484.667 -138 390.667 -138 c 0
 263.667 -138 174.044 -108 104.86 -43 c 0
 24.8018 32 -6.17969 145 19.1152 264 c 0
 43.7715 380 126.404 510 233.746 601 c 0
 345.939 696 474.354 745 610.354 745 c 0
 736.354 745 836.215 702 903.785 620 c 0
 964.056 546 981.201 462 958.458 355 c 0
 940.815 272 899.149 203 830.758 140 c 0
 771.28 86 704.903 56 644.903 56 c 0
 611.903 56 582.816 65 561.43 82 c 0
 544.405 96 538.531 106 535.845 131 c 1
 486.854 84 424.903 56 369.903 56 c 0
 278.903 56 222.058 132 242.25 227 c 0
 256.491 294 300.646 370 358.762 427 c 0
 415.665 483 492.104 518 560.104 518 c 0
 616.104 518 645.428 496 658.8 446 c 1
 687.979 508 l 1
542.013 447 m 0
 464.013 447 364.545 346 342.864 244 c 0
 330.11 184 359.12 137 409.12 137 c 0
 438.12 137 477.159 156 507.11 184 c 0
 553.25 227 593.491 294 604.332 345 c 0
 617.723 408 594.013 447 542.013 447 c 0
EndSplineSet
Validated: 33
EndChar

StartChar: A
Encoding: 65 65 34
Width: 722
VWidth: 1000
Flags: W
HStem: 0 21G<-38 125.918 482.721 639> 147 125<263.815 453.815> 709 20G<364.597 544.616>
LayerCount: 2
Fore
SplineSet
468.246 147 m 1
 195.246 147 l 1
 115 0 l 1
 -38 0 l 1
 375.954 729 l 1
 541.954 729 l 1
 639 0 l 1
 485 0 l 1
 468.246 147 l 1
453.815 272 m 1
 419.394 557 l 1
 263.815 272 l 1
 453.815 272 l 1
EndSplineSet
Validated: 1
EndChar

StartChar: B
Encoding: 66 66 35
Width: 722
VWidth: 1000
Flags: W
HStem: 0 125<194.569 458.656> 314 125<261.312 490.005> 604 125<296.384 535.57>
LayerCount: 2
Fore
SplineSet
18 0 m 1
 172.954 729 l 1
 497.954 729 l 2
 575.954 729 623.553 713 658.688 676 c 0
 692.036 640 705.771 587 695.143 537 c 0
 681.965 475 645.037 433 563.26 387 c 1
 635.057 339 661.941 282 646.637 210 c 0
 634.309 152 593.13 90 541.266 53 c 0
 489.4 16 430 0 346 0 c 2
 18 0 l 1
296.384 604 m 1
 261.312 439 l 1
 424.312 439 l 2
 493.312 439 536.477 468 547.742 521 c 0
 559.22 575 528.384 604 459.384 604 c 2
 296.384 604 l 1
234.743 314 m 1
 194.569 125 l 1
 373.569 125 l 2
 446.569 125 491.584 158 504.55 219 c 0
 517.729 281 486.743 314 413.743 314 c 2
 234.743 314 l 1
EndSplineSet
Validated: 33
EndChar

StartChar: C
Encoding: 67 67 36
Width: 722
VWidth: 1000
Flags: W
HStem: -23 126<256.987 433.097> 613 128<358.849 533.925>
VStem: 577.452 143<482 570.752>
LayerCount: 2
Fore
SplineSet
720.452 482 m 1
 577.452 482 l 1
 576.742 521 572.78 540 561.031 560 c 0
 540.471 595 501.297 613 449.297 613 c 0
 331.297 613 239.892 517 205.67 356 c 0
 171.874 197 219.894 103 335.894 103 c 0
 428.894 103 499.159 156 527.927 249 c 1
 673.927 249 l 1
 629.43 82 486.111 -23 305.111 -23 c 0
 102.111 -23 6.35742 124 56.0957 358 c 0
 106.259 594 265.504 741 471.504 741 c 0
 580.504 741 661.79 700 702.061 626 c 0
 724.346 585 728.844 545 720.452 482 c 1
EndSplineSet
Validated: 33
EndChar

StartChar: D
Encoding: 68 68 37
Width: 722
VWidth: 1000
Flags: W
HStem: 0 125<189.569 417.158> 604 125<291.384 510.714>
LayerCount: 2
Fore
SplineSet
13 0 m 1
 167.954 729 l 1
 452.954 729 l 2
 564.954 729 628.64 704 665.099 645 c 0
 708.433 576 718.39 477 694.583 365 c 0
 670.564 252 618.521 153 546.067 85 c 0
 484.526 26 409 0 298 0 c 2
 13 0 l 1
189.569 125 m 1
 324.569 125 l 2
 437.569 125 510.361 204 544.371 364 c 0
 578.592 525 539.384 604 426.384 604 c 2
 291.384 604 l 1
 189.569 125 l 1
EndSplineSet
Validated: 33
EndChar

StartChar: E
Encoding: 69 69 38
Width: 667
VWidth: 1000
Flags: W
HStem: 0 125<191.569 560> 314 125<258.312 580.743> 604 125<293.384 670.384>
LayerCount: 2
Fore
SplineSet
231.743 314 m 1
 191.569 125 l 1
 586.569 125 l 1
 560 0 l 1
 15 0 l 1
 169.954 729 l 1
 696.954 729 l 1
 670.384 604 l 1
 293.384 604 l 1
 258.312 439 l 1
 607.312 439 l 1
 580.743 314 l 1
 231.743 314 l 1
EndSplineSet
Validated: 1
EndChar

StartChar: F
Encoding: 70 70 39
Width: 611
VWidth: 1000
Flags: W
HStem: 0 21G<10 164.251> 314 125<253.312 545.743> 604 125<288.384 650.384>
LayerCount: 2
Fore
SplineSet
226.743 314 m 1
 160 0 l 1
 10 0 l 1
 164.954 729 l 1
 676.954 729 l 1
 650.384 604 l 1
 288.384 604 l 1
 253.312 439 l 1
 572.312 439 l 1
 545.743 314 l 1
 226.743 314 l 1
EndSplineSet
Validated: 1
EndChar

StartChar: G
Encoding: 71 71 40
Width: 778
VWidth: 1000
Flags: W
HStem: -23 128<274.369 435.778> -2 21G<556.575 650.826> 267 125<438.322 577.753> 613 128<364.253 554.299>
VStem: 556.575 90<-2 33.8964> 611.428 141<496 562.132>
LayerCount: 2
Fore
SplineSet
730.322 392 m 1xb4
 646.575 -2 l 1
 556.575 -2 l 1x78
 558.98 94 l 1
 485.551 12 412.111 -23 314.111 -23 c 0
 117.111 -23 7.33301 138 54.3076 359 c 0
 102.559 586 278.504 741 488.504 741 c 0
 664.504 741 766.312 646 752.428 496 c 1
 611.428 496 l 1
 606.505 534 599.119 551 581.944 569 c 0
 555.108 598 514.297 613 462.297 613 c 0
 335.297 613 238.104 518 204.732 361 c 0
 172.85 211 237.318 105 358.318 105 c 0
 416.318 105 476.845 131 522.197 175 c 0
 549.724 201 565.038 226 577.753 267 c 1
 411.753 267 l 1
 438.322 392 l 1
 730.322 392 l 1xb4
EndSplineSet
Validated: 33
EndChar

StartChar: H
Encoding: 72 72 41
Width: 722
VWidth: 1000
Flags: W
HStem: 0 21G<4 158.251 443 597.251> 331 125<250.926 513.356> 709 20G<154.703 308.954 592.703 747.954>
LayerCount: 2
Fore
SplineSet
513.356 331 m 1
 224.356 331 l 1
 154 0 l 1
 4 0 l 1
 158.954 729 l 1
 308.954 729 l 1
 250.926 456 l 1
 538.926 456 l 1
 596.954 729 l 1
 747.954 729 l 1
 593 0 l 1
 443 0 l 1
 513.356 331 l 1
EndSplineSet
Validated: 1
EndChar

StartChar: I
Encoding: 73 73 42
Width: 278
VWidth: 1000
Flags: W
HStem: 0 21G<-1 153.251> 709 20G<149.703 303.954>
VStem: -1 304.954
LayerCount: 2
Fore
SplineSet
303.954 729 m 1
 149 0 l 1
 -1 0 l 1
 153.954 729 l 1
 303.954 729 l 1
EndSplineSet
Validated: 1
EndChar

StartChar: J
Encoding: 74 74 43
Width: 556
VWidth: 1000
Flags: W
HStem: -23 128<156.674 279.618> 709 20G<422.703 576.954>
LayerCount: 2
Fore
SplineSet
426.954 729 m 1
 576.954 729 l 1
 462.386 190 l 2
 433.479 54 332.111 -23 183.111 -23 c 0
 114.111 -23 62.3623 -3 28.4395 35 c 0
 -6.05859 75 -14.0684 122 2.08594 198 c 2
 17.3906 270 l 1
 167.391 270 l 1
 152.512 200 l 2
 138.27 133 156.318 105 213.318 105 c 0
 265.318 105 300.695 135 312.386 190 c 2
 426.954 729 l 1
EndSplineSet
Validated: 33
EndChar

StartChar: K
Encoding: 75 75 44
Width: 722
VWidth: 1000
Flags: W
HStem: 0 21G<10 164.251 463.406 653> 709 20G<160.703 314.954 577.89 776.954>
LayerCount: 2
Fore
SplineSet
211.864 244 m 1
 160 0 l 1
 10 0 l 1
 164.954 729 l 1
 314.954 729 l 1
 246.936 409 l 1
 599.954 729 l 1
 776.954 729 l 1
 419.211 415 l 1
 653 0 l 1
 474 0 l 1
 303.443 322 l 1
 211.864 244 l 1
EndSplineSet
Validated: 1
EndChar

StartChar: L
Encoding: 76 76 45
Width: 611
VWidth: 1000
Flags: W
HStem: 0 125<192.569 515> 709 20G<166.703 320.954>
LayerCount: 2
Fore
SplineSet
320.954 729 m 1
 192.569 125 l 1
 541.569 125 l 1
 515 0 l 1
 16 0 l 1
 170.954 729 l 1
 320.954 729 l 1
EndSplineSet
Validated: 1
EndChar

StartChar: M
Encoding: 77 77 46
Width: 833
VWidth: 1000
Flags: W
HStem: 0 21G<2 156.251 282.638 441.793 562 716.251> 709 20G<152.703 381.255 632.289 866.954>
VStem: 272.732 108.222<221.324 568> 283 106.671<149 422.072>
LayerCount: 2
Fore
SplineSet
272.732 568 m 1xe0
 152 0 l 1
 2 0 l 1
 156.954 729 l 1
 380.954 729 l 1xe0
 389.671 149 l 1
 640.954 729 l 1
 866.954 729 l 1
 712 0 l 1
 562 0 l 1
 682.732 568 l 1
 433 0 l 1
 283 0 l 1xd0
 272.732 568 l 1xe0
EndSplineSet
Validated: 1
EndChar

StartChar: N
Encoding: 78 78 47
Width: 722
VWidth: 1000
Flags: W
HStem: 0 21G<4 158.251 439.624 601.251> 709 20G<154.703 320.356 597.703 751.954>
LayerCount: 2
Fore
SplineSet
447 0 m 1
 261.129 504 l 1
 154 0 l 1
 4 0 l 1
 158.954 729 l 1
 312.954 729 l 1
 496.525 233 l 1
 601.954 729 l 1
 751.954 729 l 1
 597 0 l 1
 447 0 l 1
EndSplineSet
Validated: 1
EndChar

StartChar: O
Encoding: 79 79 48
Width: 778
VWidth: 1000
Flags: W
HStem: -23 128<262.495 445.607> 613 128<360.708 544.273>
LayerCount: 2
Fore
SplineSet
483.504 741 m 0
 588.504 741 662.702 709 712.036 640 c 0
 762.157 570 777.477 468 753.245 354 c 0
 731.352 251 669.82 145 592.579 78 c 0
 515.126 10 426.111 -23 322.111 -23 c 0
 218.111 -23 143.126 10 94.5791 78 c 0
 44.2461 147 29.1387 250 52.3076 359 c 0
 75.4766 468 134.157 570 214.036 640 c 0
 290.277 707 381.504 741 483.504 741 c 0
457.297 613 m 0
 336.297 613 234.829 512 202.308 359 c 0
 169.787 206 228.318 105 349.318 105 c 0
 469.318 105 571.787 206 603.458 355 c 0
 637.041 513 580.297 613 457.297 613 c 0
EndSplineSet
Validated: 33
EndChar

StartChar: P
Encoding: 80 80 49
Width: 667
VWidth: 1000
Flags: W
HStem: 0 21G<12 166.251> 260 125<243.834 470.656> 604 125<290.384 509.761>
LayerCount: 2
Fore
SplineSet
217.265 260 m 1
 162 0 l 1
 12 0 l 1
 166.954 729 l 1
 488.954 729 l 2
 640.954 729 706.949 649 675.916 503 c 0
 644.458 355 538.265 260 404.265 260 c 2
 217.265 260 l 1
243.834 385 m 1
 383.834 385 l 2
 463.834 385 508.273 420 524.003 494 c 0
 539.944 569 510.384 604 430.384 604 c 2
 290.384 604 l 1
 243.834 385 l 1
EndSplineSet
Validated: 33
EndChar

StartChar: Q
Encoding: 81 81 50
Width: 778
VWidth: 1000
Flags: W
HStem: -23 128<265.503 441.372> 613 128<363.78 547.354>
LayerCount: 2
Fore
SplineSet
622.894 103 m 1
 686.739 27 l 1
 593.521 -54 l 1
 524.739 27 l 1
 459.3 -8 400.111 -23 325.111 -23 c 0
 222.111 -23 146.126 10 97.5791 78 c 0
 48.2461 147 32.1387 250 55.3076 359 c 0
 78.4766 468 138.37 571 217.036 640 c 0
 294.49 708 383.504 741 487.504 741 c 0
 591.504 741 666.49 708 715.036 640 c 0
 764.37 571 780.477 468 757.732 361 c 0
 736.902 263 684.646 163 622.894 103 c 1
475.091 278 m 1
 540.512 200 l 1
 571.863 244 594.342 298 607.096 358 c 0
 640.041 513 582.297 613 460.297 613 c 0
 339.297 613 237.829 512 205.308 359 c 0
 172.787 206 231.318 105 351.318 105 c 0
 383.318 105 417.807 112 443.357 124 c 1
 381.874 197 l 1
 475.091 278 l 1
EndSplineSet
Validated: 33
EndChar

StartChar: R
Encoding: 82 82 51
Width: 722
VWidth: 1000
Flags: W
HStem: 0 21G<16 170.251 446.219 617.251> 289 125<253.998 468.014> 604 125<294.384 554.218>
LayerCount: 2
Fore
SplineSet
227.429 289 m 1
 166 0 l 1
 16 0 l 1
 170.954 729 l 1
 561.954 729 l 2
 623.954 729 666.553 713 692.326 679 c 0
 719.674 643 728.408 590 716.08 532 c 0
 697.162 443 643.622 384 554.82 352 c 1
 639.317 312 641.192 302 599.492 87 c 0
 592.69 55 598.502 40 618.739 27 c 1
 613 0 l 1
 452 0 l 1
 440.439 35 441.115 57 455.569 125 c 0
 457.908 136 461.733 154 466.772 173 c 0
 470.535 186 472.661 196 473.937 202 c 0
 486.902 263 464.429 289 399.429 289 c 2
 227.429 289 l 1
253.998 414 m 1
 434.998 414 l 2
 477.998 414 499.062 419 518.037 433 c 0
 538.226 448 554.177 476 561.616 511 c 0
 568.844 545 565.157 570 550.346 585 c 0
 535.534 600 518.384 604 475.384 604 c 2
 294.384 604 l 1
 253.998 414 l 1
EndSplineSet
Validated: 33
EndChar

StartChar: S
Encoding: 83 83 52
Width: 667
VWidth: 1000
Flags: W
HStem: -23 120<199.386 404.044> 621 120<287.473 478.148>
VStem: 14.3369 146<132.208 218> 510.767 140<507 589.918>
LayerCount: 2
Fore
SplineSet
650.767 507 m 1
 510.767 507 l 1
 521.495 581 476.998 621 381.998 621 c 0
 304.998 621 248.559 586 236.867 531 c 0
 225.602 478 252.139 457 354.675 436 c 2
 463.998 414 l 2
 593.472 388 638.719 328 614.274 213 c 0
 582.816 65 453.111 -23 265.111 -23 c 0
 79.1113 -23 -9.82129 62 14.3369 218 c 1
 160.337 218 l 1
 148.758 140 196.618 97 298.618 97 c 0
 389.618 97 453.482 134 466.448 195 c 0
 478.989 254 447.941 282 351.979 301 c 2
 254.23 321 l 2
 112.183 349 66.873 404 90.8916 517 c 0
 121.075 659 239.504 741 414.504 741 c 4
 519.504 741 594.34 712 631.862 658 c 0
 659.36 618 665.008 574 650.767 507 c 1
EndSplineSet
Validated: 33
EndChar

StartChar: T
Encoding: 84 84 53
Width: 611
VWidth: 1000
Flags: W
HStem: 0 21G<171 325.251> 604 125<104.954 299.384 449.384 662.384>
LayerCount: 2
Fore
SplineSet
449.384 604 m 1
 321 0 l 1
 171 0 l 1
 299.384 604 l 1
 78.3838 604 l 1
 104.954 729 l 5
 688.954 729 l 1
 662.384 604 l 1
 449.384 604 l 1
EndSplineSet
Validated: 1
EndChar

StartChar: U
Encoding: 85 85 54
Width: 722
VWidth: 1000
Flags: W
HStem: -23 128<236.079 421.765> 709 20G<162.703 316.954 590.703 744.954>
LayerCount: 2
Fore
SplineSet
594.954 729 m 1
 744.954 729 l 1
 639.951 235 l 2
 622.521 153 588.193 95 529.841 51 c 0
 466.638 3 384.111 -23 296.111 -23 c 0
 208.111 -23 136.638 3 93.8408 51 c 0
 54.1934 95 44.5215 153 61.9512 235 c 2
 166.954 729 l 1
 316.954 729 l 1
 211.951 235 l 2
 193.246 147 229.318 105 323.318 105 c 0
 417.318 105 471.246 147 489.951 235 c 2
 594.954 729 l 1
EndSplineSet
Validated: 33
EndChar

StartChar: V
Encoding: 86 86 55
Width: 667
VWidth: 1000
Flags: W
HStem: 0 21G<203.502 344.11> 709 20G<114.954 267.604 576.91 737.954>
LayerCount: 2
Fore
SplineSet
333 0 m 1
 206 0 l 1
 114.954 729 l 1
 265.954 729 l 1
 311.26 180 l 1
 586.954 729 l 1
 737.954 729 l 1
 333 0 l 1
EndSplineSet
Validated: 1
EndChar

StartChar: W
Encoding: 87 87 56
Width: 944
VWidth: 1000
Flags: W
HStem: 0 21G<153.6 298.434 530.963 675.793> 709 20G<103.954 262.954 480.564 637.017 855.717 1022.95>
VStem: 103.954 159<620.034 729> 531 107.686<182 569>
LayerCount: 2
Fore
SplineSet
666 0 m 1
 531 0 l 1
 529.944 569 l 1
 290 0 l 1
 155 0 l 1
 103.954 729 l 1
 262.954 729 l 1
 259.897 183 l 1
 488.954 729 l 1
 636.954 729 l 1
 638.686 182 l 1
 863.954 729 l 1
 1022.95 729 l 1
 666 0 l 1
EndSplineSet
Validated: 1
EndChar

StartChar: X
Encoding: 88 88 57
Width: 667
VWidth: 1000
Flags: W
HStem: 0 21G<-42 147.239 404.184 589> 709 20G<120.954 305.37 545.536 734.954>
LayerCount: 2
Fore
SplineSet
434.071 372 m 1
 589 0 l 1
 411 0 l 1
 324.776 253 l 1
 132 0 l 1
 -42 0 l 1
 266.008 367 l 1
 120.954 729 l 1
 298.954 729 l 1
 375.94 489 l 1
 560.954 729 l 1
 734.954 729 l 1
 434.071 372 l 1
EndSplineSet
Validated: 1
EndChar

StartChar: Y
Encoding: 89 89 58
Width: 667
VWidth: 1000
Flags: W
HStem: 0 21G<205 359.251> 709 20G<117.954 289.958 560.069 740.954>
LayerCount: 2
Fore
SplineSet
412.391 270 m 1
 355 0 l 1
 205 0 l 1
 262.391 270 l 1
 117.954 729 l 1
 284.954 729 l 1
 365.511 407 l 1
 572.954 729 l 1
 740.954 729 l 1
 412.391 270 l 1
EndSplineSet
Validated: 1
EndChar

StartChar: Z
Encoding: 90 90 59
Width: 611
VWidth: 1000
Flags: W
HStem: 0 125<168.569 514> 604 125<120.954 467.384>
LayerCount: 2
Fore
SplineSet
668.954 729 m 1
 642.384 604 l 1
 168.569 125 l 1
 540.569 125 l 1
 514 0 l 1
 -34 0 l 1
 -7.43066 125 l 1
 467.384 604 l 1
 94.3838 604 l 1
 120.954 729 l 1
 668.954 729 l 1
EndSplineSet
Validated: 1
EndChar

StartChar: bracketleft
Encoding: 91 91 60
Width: 333
VWidth: 1000
Flags: W
HStem: -162 102<119.247 209.565> 669 102<274.2 386.2>
LayerCount: 2
Fore
SplineSet
407.881 771 m 5
 386.2 669 l 5
 274.2 669 l 5
 119.247 -60 l 1
 231.247 -60 l 1
 209.565 -162 l 1
 -32.4346 -162 l 1
 165.881 771 l 5
 407.881 771 l 5
EndSplineSet
Validated: 1
EndChar

StartChar: backslash
Encoding: 92 92 61
Width: 298
VWidth: 1000
Flags: W
HStem: -14 21G<152.847 242.024> 694 20G<75.7656 164.943>
VStem: 75.7656 166.258
LayerCount: 2
Fore
SplineSet
162.766 714 m 5
 242.024 -14 l 5
 155.024 -14 l 1
 75.7656 714 l 1
 162.766 714 l 5
EndSplineSet
Validated: 1
EndChar

StartChar: bracketright
Encoding: 93 93 62
Width: 333
VWidth: 1000
Flags: W
HStem: -162 102<-58.7529 53.2471> 669 102<117.881 208.2>
LayerCount: 2
Fore
SplineSet
-80.4346 -162 m 1
 -58.7529 -60 l 1
 53.2471 -60 l 1
 208.2 669 l 1
 96.2002 669 l 1
 117.881 771 l 5
 359.881 771 l 1
 161.565 -162 l 1
 -80.4346 -162 l 1
EndSplineSet
Validated: 1
EndChar

StartChar: asciicircum
Encoding: 94 94 63
Width: 584
VWidth: 1000
Flags: W
LayerCount: 2
Fore
SplineSet
515.391 270 m 1
 402.391 270 l 1
 345.157 570 l 1
 166.391 270 l 1
 54.3906 270 l 1
 309.727 695 l 1
 434.727 695 l 1
 515.391 270 l 1
EndSplineSet
Validated: 1
EndChar

StartChar: underscore
Encoding: 95 95 64
Width: 556
VWidth: 1000
Flags: W
HStem: -189 69<-111.507 473.827>
LayerCount: 2
Fore
SplineSet
488.493 -120 m 1
 473.827 -189 l 1
 -126.173 -189 l 1
 -111.507 -120 l 1
 488.493 -120 l 1
EndSplineSet
Validated: 1
EndChar

StartChar: grave
Encoding: 96 96 65
Width: 278
VWidth: 1000
Flags: W
HStem: 469 125<184.259 237.689> 683 46<223.862 283.176>
VStem: 102.689 190.265
LayerCount: 2
Fore
SplineSet
237.689 469 m 1
 102.689 469 l 1
 125.857 578 l 2
 137.974 635 157.987 668 195.727 695 c 0
 223.978 715 258.528 727 292.954 729 c 1
 283.176 683 l 1
 225.051 673 192.887 644 184.259 594 c 1
 264.259 594 l 1
 237.689 469 l 1
EndSplineSet
Validated: 1
EndChar

StartChar: a
Encoding: 97 97 66
Width: 556
VWidth: 1000
Flags: W
HStem: -23 113<99.1111 221.737> 0 21G<303.201 463.613> 436 113<218.26 368.89>
LayerCount: 2
Fore
SplineSet
463.613 17 m 1xa0
 460 0 l 1
 308 0 l 1x60
 298.401 16 297.526 26 303.479 54 c 1
 243.638 3 183.111 -23 123.111 -23 c 0
 75.1113 -23 32.1494 -4 7.95117 28 c 0
 -11.3096 55 -16.2324 93 -6.45508 139 c 0
 14.1631 236 77.8535 291 188.68 309 c 2
 246.806 319 l 2
 318.144 330 318.144 330 339.27 340 c 0
 355.97 348 368.37 364 372.196 382 c 0
 379.849 418 356.675 436 302.675 436 c 0
 233.675 436 206.849 418 187.945 362 c 1
 52.9453 362 l 1
 88.5146 487 177.693 549 323.693 549 c 0
 469.693 549 532.79 493 509.409 383 c 2
 445.643 83 l 2
 439.69 55 443.502 40 463.613 17 c 1xa0
337.125 217 m 2
 345.202 255 l 1
 327.502 247 321.076 245 282.589 238 c 2
 232.676 229 l 2
 172.125 217 145.874 197 136.946 155 c 0
 128.444 115 152.13 90 199.13 90 c 0xa0
 270.13 90 319.907 136 337.125 217 c 2
EndSplineSet
Validated: 33
EndChar

StartChar: b
Encoding: 98 98 67
Width: 611
VWidth: 1000
Flags: W
HStem: -23 117<213.683 339.841> 0 21G<-5 139.251> 432 117<302.729 434.738> 709 20G<145.703 289.954>
LayerCount: 2
Fore
SplineSet
149.954 729 m 1x70
 289.954 729 l 1
 234.901 470 l 1
 280.38 524 333.693 549 400.693 549 c 0
 466.693 549 525.467 515 551.201 462 c 0
 576.148 410 582.419 336 566.902 263 c 0
 532.256 100 408.111 -23 279.111 -23 c 0xb0
 211.111 -23 169.425 2 146.69 55 c 1
 135 0 l 1
 -5 0 l 1
 149.954 729 l 1x70
344.824 432 m 0
 274.824 432 212.158 363 191.327 265 c 0
 169.435 162 201.98 94 272.98 94 c 0
 341.98 94 405.859 164 426.689 262 c 0
 447.945 362 413.824 432 344.824 432 c 0
EndSplineSet
Validated: 33
EndChar

StartChar: c
Encoding: 99 99 68
Width: 556
VWidth: 1000
Flags: W
HStem: -23 113<186.166 312.273> 436 113<242.801 378.205>
VStem: 395.844 134<338 416.744>
LayerCount: 2
Fore
SplineSet
529.844 338 m 1
 395.844 338 l 1
 394.936 409 373.675 436 316.675 436 c 0
 276.675 436 242.273 420 219.897 390 c 0
 196.096 358 175.893 310 165.052 259 c 0
 142.733 154 172.13 90 243.13 90 c 0
 297.13 90 330.869 117 363.748 187 c 1
 497.748 187 l 1
 457.328 58 349.111 -23 218.111 -23 c 0
 58.1113 -23 -12.7832 81 25.0518 259 c 0
 64.1621 443 180.693 549 341.693 549 c 0
 476.693 549 547.901 470 529.844 338 c 1
EndSplineSet
Validated: 33
EndChar

StartChar: d
Encoding: 100 100 69
Width: 611
VWidth: 1000
Flags: W
HStem: -23 117<184.266 284.843> 0 21G<341 485.251> 432 117<247.726 373.735> 709 20G<491.703 635.954>
LayerCount: 2
Fore
SplineSet
341 0 m 1x70
 352.69 55 l 1
 306.425 2 254.111 -23 187.111 -23 c 0xb0
 121.111 -23 62.3379 11 36.3906 63 c 0
 11.4443 115 5.17285 189 20.6895 262 c 0
 55.3369 425 179.693 549 308.693 549 c 0
 375.693 549 417.38 524 440.901 470 c 1
 495.954 729 l 1
 635.954 729 l 1
 481 0 l 1
 341 0 l 1x70
314.824 432 m 0
 244.824 432 181.945 362 160.689 262 c 0
 139.646 163 172.98 94 242.98 94 c 0
 312.98 94 375.435 162 396.265 260 c 0
 418.158 363 385.824 432 314.824 432 c 0
EndSplineSet
Validated: 33
EndChar

StartChar: e
Encoding: 101 101 70
Width: 556
VWidth: 1000
Flags: W
HStem: -23 107<163.778 305.864> 226 93<167.806 385.161> 442 107<228.812 360.235>
LayerCount: 2
Fore
SplineSet
508.038 226 m 1
 146.038 226 l 1
 137.197 175 137.096 151 145.845 131 c 0
 159.468 101 187.854 84 227.854 84 c 0
 278.854 84 323.169 109 349.309 152 c 1
 487.309 152 l 1
 433.777 46 321.111 -23 200.111 -23 c 0
 47.1113 -23 -24.3574 83 12.4141 256 c 0
 50.8877 437 169.693 549 324.693 549 c 0
 433.693 549 508.152 490 523.322 392 c 0
 528.245 354 525.617 304 514.139 250 c 0
 512.651 243 511.589 238 508.038 226 c 1
167.806 319 m 1
 382.806 319 l 1
 387.67 356 386.134 377 377.385 397 c 0
 363.337 425 334.95 442 299.95 442 c 0
 237.95 442 194.235 401 167.806 319 c 1
EndSplineSet
Validated: 33
EndChar

StartChar: f
Encoding: 102 102 71
Width: 333
VWidth: 1000
Flags: W
HStem: 0 21G<26 170.251> 436 93<62.4424 118.675 278.442 341.675> 624 105<296.879 377.011>
LayerCount: 2
Fore
SplineSet
361.442 529 m 1
 341.675 436 l 1
 258.675 436 l 1
 166 0 l 1
 26 0 l 1
 118.675 436 l 1
 42.6748 436 l 1
 62.4424 529 l 1
 138.442 529 l 1
 152.259 594 l 2
 171.602 685 225.954 729 318.954 729 c 0
 337.954 729 372.741 728 398.316 726 c 1
 375.998 621 l 1
 364.423 623 348.636 624 336.636 624 c 0
 310.636 624 295.659 610 289.708 582 c 2
 278.442 529 l 1
 361.442 529 l 1
EndSplineSet
Validated: 1
EndChar

StartChar: g
Encoding: 103 103 72
Width: 611
VWidth: 1000
Flags: W
HStem: -218 90<128.561 279.698> -23 117<119.611 282.37> 432 117<250.435 373.482> 520 20G<454.529 591.78>
LayerCount: 2
Fore
SplineSet
458.78 540 m 1xd0
 591.78 540 l 1xd0
 473.174 -18 l 2
 446.18 -145 336.663 -218 173.663 -218 c 0
 90.6631 -218 34.2764 -201 -1.28418 -166 c 0
 -30.9072 -136 -40.7432 -107 -32.8164 -65 c 1
 112.184 -65 l 1
 114.469 -106 144.793 -128 197.793 -128 c 0
 267.793 -128 326.357 -83 340.174 -18 c 2
 355.69 55 l 1
 291.149 -4 249.111 -23 186.111 -23 c 0
 53.1113 -23 -11.082 89 24.627 257 c 0
 60.124 424 182.693 549 310.693 549 c 0xe0
 372.693 549 412.742 521 441.139 457 c 1
 458.78 540 l 1xd0
315.824 432 m 0xe0
 247.824 432 186.732 361 165.052 259 c 0
 144.222 161 175.98 94 241.98 94 c 0
 314.98 94 380.222 161 401.052 259 c 0
 422.308 359 385.824 432 315.824 432 c 0xe0
EndSplineSet
Validated: 33
EndChar

StartChar: h
Encoding: 104 104 73
Width: 611
VWidth: 1000
Flags: W
HStem: 0 21G<3 147.251 337 481.251> 430 119<319.713 440.193> 709 20G<153.703 297.954>
LayerCount: 2
Fore
SplineSet
157.954 729 m 1
 297.954 729 l 1
 241.201 462 l 1
 292.742 521 348.693 549 417.693 549 c 0
 462.693 549 504.505 534 529.979 508 c 0
 560.39 477 568.187 429 553.945 362 c 2
 477 0 l 1
 337 0 l 1
 407.144 330 l 2
 414.583 365 413.559 379 405.385 397 c 0
 394.062 419 372.399 430 342.399 430 c 0
 279.399 430 225.047 386 211.868 324 c 2
 143 0 l 1
 3 0 l 1
 157.954 729 l 1
EndSplineSet
Validated: 33
EndChar

StartChar: i
Encoding: 105 105 74
Width: 278
VWidth: 1000
Flags: W
HStem: 0 21G<3 147.251> 520 20G<113.529 257.78> 604 125<157.954 271.384>
VStem: 3 294.954
LayerCount: 2
Fore
SplineSet
257.78 540 m 1
 143 0 l 1
 3 0 l 1
 117.78 540 l 1
 257.78 540 l 1
297.954 729 m 1
 271.384 604 l 1
 131.384 604 l 1
 157.954 729 l 1
 297.954 729 l 1
EndSplineSet
Validated: 1
EndChar

StartChar: j
Encoding: 106 106 75
Width: 278
VWidth: 1000
Flags: W
HStem: -218 113<-83.7709 -14.2855> 520 20G<116.529 260.78> 604 125<160.954 274.384>
LayerCount: 2
Fore
SplineSet
260.78 540 m 1
 126.02 -94 l 2
 107.314 -182 63.6631 -218 -23.3369 -218 c 0
 -43.3369 -218 -77.9121 -216 -105.274 -213 c 1
 -81.4678 -101 l 1
 -72.1055 -104 -66.3184 -105 -57.3184 -105 c 0
 -27.3184 -105 -13.9805 -94 -7.39062 -63 c 2
 120.78 540 l 1
 260.78 540 l 1
300.954 729 m 1
 274.384 604 l 1
 134.384 604 l 1
 160.954 729 l 1
 300.954 729 l 1
EndSplineSet
Validated: 1
EndChar

StartChar: k
Encoding: 107 107 76
Width: 556
VWidth: 1000
Flags: W
HStem: 0 21G<-5 139.251 313.411 484> 520 20G<405.672 585.78> 709 20G<145.703 289.954>
LayerCount: 2
Fore
SplineSet
205.144 330 m 1
 426.78 540 l 1
 585.78 540 l 1
 358.419 336 l 1
 484 0 l 1
 320 0 l 1
 241.589 238 l 1
 172.622 177 l 1
 135 0 l 1
 -5 0 l 1
 149.954 729 l 1
 289.954 729 l 1
 205.144 330 l 1
EndSplineSet
Validated: 1
EndChar

StartChar: l
Encoding: 108 108 77
Width: 278
VWidth: 1000
Flags: W
HStem: 0 21G<3 147.251> 709 20G<153.703 297.954>
VStem: 3 294.954
LayerCount: 2
Fore
SplineSet
297.954 729 m 1
 143 0 l 1
 3 0 l 1
 157.954 729 l 1
 297.954 729 l 1
EndSplineSet
Validated: 1
EndChar

StartChar: m
Encoding: 109 109 78
Width: 889
VWidth: 1000
Flags: W
HStem: 0 21G<-4 140.251 308 452.251 620 764.251> 430 119<304.044 433.193 603.656 758.693> 520 20G<106.529 249.78>
LayerCount: 2
Fore
SplineSet
110.78 540 m 1xa0
 249.78 540 l 1xa0
 235.539 473 l 1
 293.229 528 337.693 549 399.693 549 c 0
 466.693 549 514.529 520 529.689 469 c 1
 583.592 525 636.693 549 704.693 549 c 0
 812.693 549 863.515 487 841.196 382 c 2
 760 0 l 1
 620 0 l 1
 696.521 360 l 2
 705.66 403 682.399 430 635.399 430 c 0
 575.399 430 530.897 390 516.868 324 c 2
 448 0 l 1
 308 0 l 1
 384.521 360 l 2
 393.66 403 370.399 430 323.399 430 c 0xc0
 263.399 430 218.897 390 204.868 324 c 2
 136 0 l 1
 -4 0 l 1
 110.78 540 l 1xa0
EndSplineSet
Validated: 33
EndChar

StartChar: n
Encoding: 110 110 79
Width: 611
VWidth: 1000
Flags: W
HStem: 0 21G<-1 143.251 342 486.251> 430 119<314.995 475.193> 520 20G<109.529 253.78>
LayerCount: 2
Fore
SplineSet
113.78 540 m 1xa0
 253.78 540 l 1xa0
 237.201 462 l 1
 289.954 522 344.693 549 417.693 549 c 0
 532.693 549 584.239 481 558.945 362 c 2
 482 0 l 1
 342 0 l 1
 412.781 333 l 2
 426.385 397 403.399 430 343.399 430 c 0xc0
 275.399 430 221.472 388 207.868 324 c 2
 139 0 l 1
 -1 0 l 1
 113.78 540 l 1xa0
EndSplineSet
Validated: 33
EndChar

StartChar: o
Encoding: 111 111 80
Width: 611
VWidth: 1000
Flags: W
HStem: -23 113<194.729 329.007> 436 113<257.923 393.123>
LayerCount: 2
Fore
SplineSet
353.693 549 m 0
 522.693 549 598.95 442 560.052 259 c 0
 523.28 86 397.111 -23 233.111 -23 c 0
 67.1113 -23 -10.9326 85 26.9023 263 c 0
 64.5244 440 188.693 549 353.693 549 c 0
330.675 436 m 0
 254.675 436 188.796 366 166.902 263 c 0
 145.009 160 181.13 90 257.13 90 c 0
 332.13 90 399.009 160 420.478 261 c 0
 443.008 367 407.675 436 330.675 436 c 0
EndSplineSet
Validated: 33
EndChar

StartChar: p
Encoding: 112 112 81
Width: 611
VWidth: 1000
Flags: W
HStem: -218 21G<-52.3369 91.9142> -24 117<213.166 339.227> 432 117<305.553 434.198> 520 20G<104.529 248.78>
LayerCount: 2
Fore
SplineSet
248.78 540 m 1xd0
 231.776 460 l 1
 278.529 520 332.693 549 400.693 549 c 0xe0
 465.693 549 525.467 515 550.626 464 c 0
 575.998 414 581.844 338 565.689 262 c 0
 530.83 98 408.898 -24 278.898 -24 c 0
 210.898 -24 168.851 4 147.604 64 c 1
 87.6631 -218 l 1
 -52.3369 -218 l 1
 108.78 540 l 1
 248.78 540 l 1xd0
343.824 432 m 0
 273.824 432 211.158 363 189.689 262 c 0
 168.222 161 201.768 93 271.768 93 c 0
 340.768 93 404.435 162 425.265 260 c 0
 447.158 363 414.824 432 343.824 432 c 0
EndSplineSet
Validated: 33
EndChar

StartChar: q
Encoding: 113 113 82
Width: 611
VWidth: 1000
Flags: W
HStem: -218 21G<293.663 437.914> -24 117<151.577 279.967> 432 117<246.129 372.481> 520 20G<450.529 594.78>
LayerCount: 2
Fore
SplineSet
454.78 540 m 1xd0
 594.78 540 l 1xd0
 433.663 -218 l 1
 293.663 -218 l 1
 353.604 64 l 1
 308.062 5 251.898 -24 183.898 -24 c 0
 119.898 -24 60.126 10 34.9658 61 c 0
 9.38086 110 3.53516 186 19.6895 262 c 0
 54.7617 427 176.693 549 306.693 549 c 0xe0
 373.693 549 417.316 519 437.776 460 c 1
 454.78 540 l 1xd0
313.824 432 m 0xe0
 243.824 432 181.158 363 159.689 262 c 0
 138.222 161 171.768 93 241.768 93 c 0
 311.768 93 374.222 161 395.052 259 c 0
 417.37 364 384.824 432 313.824 432 c 0xe0
EndSplineSet
Validated: 33
EndChar

StartChar: r
Encoding: 114 114 83
Width: 389
VWidth: 1000
Flags: W
HStem: 0 21G<-1 143.251> 410 139<323.132 407.693> 520 20G<109.529 253.78>
LayerCount: 2
Fore
SplineSet
113.78 540 m 1xa0
 253.78 540 l 1xa0
 231.25 434 l 1
 276.767 507 341.693 549 405.693 549 c 0
 409.693 549 414.693 549 422.481 548 c 1
 392.298 406 l 1
 373.936 409 364.148 410 349.148 410 c 0xc0
 267.148 410 217.434 369 200.004 287 c 2
 139 0 l 1
 -1 0 l 1
 113.78 540 l 1xa0
EndSplineSet
Validated: 1
EndChar

StartChar: s
Encoding: 115 115 84
Width: 556
VWidth: 1000
Flags: W
HStem: -23 110<151.775 325.745> 439 110<222.653 374.12>
LayerCount: 2
Fore
SplineSet
518.796 366 m 1
 383.796 366 l 1
 393.211 415 365.312 439 298.312 439 c 0
 249.312 439 213.062 419 206.685 389 c 0
 202.008 367 210.308 359 246.757 347 c 2
 412.917 296 l 2
 479.453 275 504.888 230 490.009 160 c 0
 478.743 107 444.115 57 397.313 25 c 0
 350.512 -7 290.111 -23 215.111 -23 c 0
 51.1113 -23 -22.71 39 -1.62891 157 c 1
 135.371 157 l 1
 135.207 128 138.869 117 151.531 106 c 0
 166.98 94 194.492 87 230.492 87 c 0
 295.492 87 338.743 107 345.758 140 c 0
 350.435 162 340.772 173 308.11 184 c 2
 152.163 236 l 2
 103.776 253 88.6895 262 73.7285 281 c 0
 59.1924 302 54.7812 333 62.4336 369 c 0
 86.0273 480 185.693 549 322.693 549 c 0
 467.693 549 541.027 480 518.796 366 c 1
EndSplineSet
Validated: 33
EndChar

StartChar: t
Encoding: 116 116 85
Width: 333
VWidth: 1000
Flags: W
HStem: -23 106<105.111 235.011> 436 93<62.4424 111.675 271.442 329.675>
LayerCount: 2
Fore
SplineSet
349.442 529 m 1
 329.675 436 l 1
 251.675 436 l 1
 189.183 142 l 2
 178.98 94 185.643 83 222.643 83 c 0
 232.643 83 240.854 84 255.28 86 c 1
 234.449 -12 l 1
 207.749 -20 182.111 -23 151.111 -23 c 0
 59.1113 -23 23.0391 19 41.1055 104 c 2
 111.675 436 l 1
 42.6748 436 l 1
 62.4424 529 l 1
 131.442 529 l 1
 162.263 674 l 1
 302.263 674 l 1
 271.442 529 l 1
 349.442 529 l 1
EndSplineSet
Validated: 33
EndChar

StartChar: u
Encoding: 117 117 86
Width: 611
VWidth: 1000
Flags: W
HStem: -23 119<112.611 272.809> 0 21G<337 481.251> 520 20G<104.529 248.78 447.529 591.78>
LayerCount: 2
Fore
SplineSet
477 0 m 1x60
 337 0 l 1x60
 350.604 64 l 1
 297.851 4 243.111 -23 170.111 -23 c 0
 55.1113 -23 3.56543 45 28.8594 164 c 2
 108.78 540 l 1
 248.78 540 l 1
 175.023 193 l 2
 161.207 128 184.405 96 244.405 96 c 0xa0
 312.405 96 366.333 138 379.937 202 c 2
 451.78 540 l 1
 591.78 540 l 1
 477 0 l 1x60
EndSplineSet
Validated: 33
EndChar

StartChar: v
Encoding: 118 118 87
Width: 556
VWidth: 1000
Flags: W
HStem: 0 21G<136.251 297.14> 520 20G<64.7803 214.453 429.01 586.78>
LayerCount: 2
Fore
SplineSet
286 0 m 1
 139 0 l 1
 64.7803 540 l 1
 212.78 540 l 1
 245.82 145 l 1
 438.78 540 l 1
 586.78 540 l 1
 286 0 l 1
EndSplineSet
Validated: 1
EndChar

StartChar: w
Encoding: 119 119 88
Width: 778
VWidth: 1000
Flags: W
HStem: 0 21G<91.6215 245.766 403.999 558.918> 520 20G<55.7803 201.079 360.19 508.815 663.19 816.78>
VStem: 55.7803 145<429.301 540> 404 105.435<162 381>
LayerCount: 2
Fore
SplineSet
549 0 m 1
 404 0 l 1
 403.984 381 l 1
 237 0 l 1
 93 0 l 1
 55.7803 540 l 1
 200.78 540 l 1
 206.435 162 l 1
 368.78 540 l 1
 508.78 540 l 1
 509.435 162 l 1
 671.78 540 l 1
 816.78 540 l 1
 549 0 l 1
EndSplineSet
Validated: 1
EndChar

StartChar: x
Encoding: 120 120 89
Width: 556
VWidth: 1000
Flags: W
HStem: 0 21G<-48 135.204 296.418 471> 520 20G<70.7803 245.327 398.854 581.78>
LayerCount: 2
Fore
SplineSet
348.815 272 m 1
 471 0 l 1
 303 0 l 1
 247.71 168 l 1
 120 0 l 1
 -48 0 l 1
 189.815 272 l 1
 70.7803 540 l 1
 238.78 540 l 1
 292.134 377 l 1
 413.78 540 l 1
 581.78 540 l 1
 348.815 272 l 1
EndSplineSet
Validated: 1
EndChar

StartChar: y
Encoding: 121 121 90
Width: 556
VWidth: 1000
Flags: W
HStem: -219 103<-4.0321 98.054> 520 20G<59.7803 215.585 434.829 588.78>
LayerCount: 2
Fore
SplineSet
444.78 540 m 1
 588.78 540 l 1
 230.957 -99 l 1
 194.354 -163 172.465 -186 130.063 -202 c 0
 103.938 -212 60.4502 -219 25.4502 -219 c 0
 8.4502 -219 -3.33691 -218 -23.6992 -215 c 1
 -1.38086 -110 l 1
 15.5557 -115 23.3438 -116 34.3438 -116 c 0
 83.3438 -116 129.633 -77 140.474 -26 c 2
 141.111 -23 l 1
 141.324 -22 l 1
 59.7803 540 l 1
 213.78 540 l 1
 249.246 147 l 1
 444.78 540 l 1
EndSplineSet
Validated: 1
EndChar

StartChar: z
Encoding: 122 122 91
Width: 500
VWidth: 1000
Flags: W
HStem: 0 113<154.019 404> 427 113<89.7803 314.762>
LayerCount: 2
Fore
SplineSet
509.78 540 m 1
 485.762 427 l 1
 154.019 113 l 1
 428.019 113 l 1
 404 0 l 1
 -43 0 l 1
 -18.9814 113 l 1
 314.762 427 l 1
 65.7617 427 l 1
 89.7803 540 l 1
 509.78 540 l 1
EndSplineSet
Validated: 1
EndChar

StartChar: braceleft
Encoding: 123 123 92
Width: 389
VWidth: 1000
Flags: W
HStem: -200 99<159.673 210.488> 222 93<39.9551 85.9926> 630 99<305.433 386.91>
LayerCount: 2
Fore
SplineSet
407.954 729 m 1
 386.91 630 l 1
 349.91 630 l 2
 318.91 630 301.297 613 292.795 573 c 2
 251.347 378 l 2
 235.83 305 208.516 280 131.178 269 c 1
 203.627 257 220.313 232 204.797 159 c 2
 163.348 -36 l 2
 152.933 -85 160.532 -101 194.532 -101 c 2
 231.532 -101 l 1
 210.488 -200 l 1
 134.488 -200 l 2
 62.4883 -200 23.8174 -142 41.2471 -60 c 2
 85.8838 150 l 2
 94.3857 190 89.7871 206 69.125 217 c 0
 58.9746 221 52.1875 222 24.1875 222 c 2
 20.4004 223 l 1
 39.9551 315 l 1
 43.9551 315 l 1
 55.9551 315 l 2
 101.168 316 125.206 335 134.347 378 c 2
 179.195 589 l 2
 196.625 671 259.954 729 331.954 729 c 2
 407.954 729 l 1
EndSplineSet
Validated: 33
EndChar

StartChar: bar
Encoding: 124 124 93
Width: 280
VWidth: 1000
Flags: W
HStem: -200 21G<-6.51172 77.7394> 709 20G<186.703 270.954>
VStem: -6.51172 277.466
LayerCount: 2
Fore
SplineSet
270.954 729 m 1
 73.4883 -200 l 1
 -6.51172 -200 l 1
 190.954 729 l 1
 270.954 729 l 1
EndSplineSet
Validated: 1
EndChar

StartChar: braceright
Encoding: 125 125 94
Width: 389
VWidth: 1000
Flags: W
HStem: -200 99<-13.4678 68.009> 214 93<287.449 333.487> 630 99<162.954 213.77>
LayerCount: 2
Fore
SplineSet
-34.5117 -200 m 1
 -13.4678 -101 l 1
 23.5322 -101 l 2
 54.5322 -101 72.1455 -84 80.6475 -44 c 2
 122.096 151 l 2
 137.612 224 164.927 249 242.265 260 c 1
 169.815 272 153.129 297 168.646 370 c 2
 210.095 565 l 2
 220.51 614 212.91 630 178.91 630 c 2
 141.91 630 l 1
 162.954 729 l 1
 238.954 729 l 2
 310.954 729 349.625 671 332.195 589 c 2
 287.559 379 l 2
 279.057 339 283.656 323 304.317 312 c 0
 314.468 308 321.255 307 349.255 307 c 2
 353.042 306 l 1
 333.487 214 l 1
 329.487 214 l 1
 317.487 214 l 2
 272.274 213 248.236 194 239.096 151 c 2
 194.247 -60 l 2
 176.817 -142 113.488 -200 41.4883 -200 c 2
 -34.5117 -200 l 1
EndSplineSet
Validated: 33
EndChar

StartChar: asciitilde
Encoding: 126 126 95
Width: 584
VWidth: 1000
Flags: W
HStem: 142 80<317.638 422.287> 234 80<125.769 231.924>
VStem: 31.9219 78.0001<169 206.628> 438.216 78.001<249.372 288>
LayerCount: 2
Fore
SplineSet
438.216 288 m 1
 516.217 288 l 1
 489.386 190 438.183 142 358.183 142 c 0
 325.183 142 302.884 150 280.71 168 c 2
 232.637 210 l 2
 213.25 227 197.738 234 176.738 234 c 0
 152.738 234 134.825 225 122.999 207 c 0
 118.299 199 116.448 195 109.922 169 c 1
 31.9219 169 l 1
 57.54 266 110.743 314 189.743 314 c 0
 222.743 314 247.042 306 267.429 289 c 2
 315.502 247 l 2
 337.463 228 350.188 222 371.188 222 c 0
 395.188 222 413.101 231 424.927 249 c 0
 429.627 257 431.478 261 438.216 288 c 1
EndSplineSet
Validated: 1
EndChar

StartChar: sterling
Encoding: 163 163 96
Width: 633
VWidth: 1000
Flags: W
HStem: -23 125<246.239 466.74> 9 114<148.913 294.955> 309 68<82.1338 138.726 292.829 411.679> 604 111<304.737 442.644>
VStem: 161.101 132.526<202.616 309>
LayerCount: 2
Fore
SplineSet
284.679 377 m 1x78
 426.133 377 l 9
 411.679 309 l 17
 292.829 309 l 1
 297.646 287.496 297.479 275.121 293.627 257 c 0
 281.299 199 240.521 153 141.28 86 c 1
 210.656 116 232.145 123 261.145 123 c 0x78
 278.145 123 285.932 122 322.807 112 c 0
 347.318 105 366.681 102 383.681 102 c 0
 416.681 102 450.594 111 494.845 131 c 1
 512.676 22 l 1
 449.662 -11 407.111 -23 358.111 -23 c 0xb8
 331.111 -23 309.961 -19 262.512 -7 c 0
 217.062 5 193.913 9 167.913 9 c 0
 129.913 9 101.213 1 52.5361 -21 c 1
 19.0049 80 l 1
 115.12 137 148.772 173 161.101 231 c 0
 166.088 254.462 165.922 274.4 159.51 309 c 1
 67.6797 309 l 9
 82.1338 377 l 17
 138.726 377 l 1
 112.487 451.149 109.568 473.135 118.679 516 c 0
 130.582 572 170.698 629 224.562 666 c 1
 273.364 698 331.978 715 398.978 715 c 0
 502.978 715 572.688 676 593.597 605 c 0
 602.433 576 603.418 543 595.877 484 c 1
 463.877 484 l 1
 465.216 495 l 1
 468.993 541 464.819 559 447.646 577 c 0
 431.471 595 406.384 604 376.384 604 c 0
 319.384 604 270.307 566 259.041 513 c 0
 254.79 493 256.09 485 269.675 436 c 0
 277.971 405.631 281.938 390.319 284.679 377 c 1x78
EndSplineSet
Validated: 33
EndChar

StartChar: uni0591
Encoding: 1425 1425 97
Width: 0
VWidth: 1000
Flags: W
HStem: -258 198
VStem: -243.793 73.656<-258 -221.551> -67.543 73.6563<-258 -210.227>
LayerCount: 2
Fore
SplineSet
-52.7812 -140.11 m 1
 -7.90918 -157.341 17.5781 -204.062 6.11328 -258 c 9
 -67.543 -258 l 17
 -61.6113 -230.094 -80.0303 -206.703 -107.937 -206.703 c 0
 -135.842 -206.703 -164.205 -230.094 -170.137 -258 c 9
 -243.793 -258 l 17
 -232.328 -204.062 -186.979 -157.341 -134.781 -140.11 c 1
 -117.753 -60 l 1
 -35.7529 -60 l 1
 -52.7812 -140.11 l 1
EndSplineSet
Validated: 33
EndChar

StartChar: uni0592
Encoding: 1426 1426 98
Width: 0
VWidth: 1000
Flags: W
HStem: 660 82.354<-12.0908 52.7578 117.321 182.17> 771.766 82.351<76.3721 141.22>
VStem: -29.5957 229.271
LayerCount: 2
Fore
SplineSet
58.8682 771.766 m 1
 76.3721 854.117 l 1
 158.724 854.117 l 1
 141.22 771.766 l 1
 58.8682 771.766 l 1
-29.5957 660 m 1
 -12.0908 742.354 l 1
 70.2627 742.354 l 1
 52.7578 660 l 1
 -29.5957 660 l 1
99.8164 660 m 1
 117.321 742.354 l 1
 199.675 742.354 l 1
 182.17 660 l 1
 99.8164 660 l 1
EndSplineSet
Validated: 1
EndChar

StartChar: uni0593
Encoding: 1427 1427 99
Width: 0
VWidth: 1000
Flags: W
HStem: 610 283
VStem: -20.3408 218.976
LayerCount: 2
Fore
SplineSet
198.635 831 m 1
 187.794 780 l 1
 107.63 751 l 1
 175.679 723 l 1
 164.625 671 l 1
 -20.3408 610 l 1
 -8.4375 666 l 1
 71.7266 695 l 1
 3.67871 723 l 1
 15.7939 780 l 1
 97.5332 807 l 1
 27.6973 836 l 1
 39.8135 893 l 1
 198.635 831 l 1
EndSplineSet
Validated: 1
EndChar

StartChar: uni0594
Encoding: 1428 1428 100
Width: 0
VWidth: 1000
Flags: W
HStem: 660 82.354<52.6162 117.463> 771.765 82.352<76.3721 141.22>
VStem: 35.1113 123.613
LayerCount: 2
Fore
SplineSet
52.6162 742.354 m 1
 134.968 742.354 l 1
 117.463 660 l 1
 35.1113 660 l 1
 52.6162 742.354 l 1
76.3721 854.117 m 1
 158.724 854.117 l 1
 141.22 771.765 l 1
 58.8682 771.765 l 1
 76.3721 854.117 l 1
EndSplineSet
Validated: 1
EndChar

StartChar: uni0595
Encoding: 1429 1429 101
Width: 0
VWidth: 1000
Flags: W
HStem: 660 82.354<114.616 179.463> 771.765 82.352<138.372 203.22>
VStem: -26.8887 247.614
LayerCount: 2
Fore
SplineSet
96.6992 854 m 1
 55.4629 660 l 1
 -26.8887 660 l 1
 14.3477 854 l 1
 96.6992 854 l 1
114.616 742.354 m 1
 196.968 742.354 l 1
 179.463 660 l 1
 97.1113 660 l 1
 114.616 742.354 l 1
138.372 854.117 m 1
 220.725 854.117 l 1
 203.22 771.765 l 1
 120.868 771.765 l 1
 138.372 854.117 l 1
EndSplineSet
Validated: 1
EndChar

StartChar: uni0596
Encoding: 1430 1430 102
Width: 0
VWidth: 1000
Flags: W
HStem: -273 213<-131.591 -127.626>
VStem: -165.155 87.9997<-243.171 -60>
LayerCount: 2
Fore
SplineSet
-127.626 -273 m 17
 -170.899 -218.63 -182.853 -143.258 -165.155 -60 c 9
 -77.1553 -60 l 21
 -94.8525 -143.258 -76.8994 -218.63 -33.626 -273 c 13
 -127.626 -273 l 17
EndSplineSet
Validated: 33
EndChar

StartChar: uni0597
Encoding: 1431 1431 103
Width: 0
VWidth: 1000
Flags: W
HStem: 641.359 208.641
VStem: -9.82129 208.64
LayerCount: 2
Fore
SplineSet
-9.82129 745.678 m 5
 116.675 850 l 5
 198.819 745.682 l 5
 72.3232 641.359 l 5
 -9.82129 745.678 l 5
EndSplineSet
Validated: 1
EndChar

StartChar: uni0598
Encoding: 1432 1432 104
Width: 0
VWidth: 1000
Flags: W
HStem: 650 62.418<130.35 187.852> 777.5 62.5<0.506321 60.0879>
VStem: 60.6738 68.5742<713.458 777.079>
LayerCount: 2
Fore
SplineSet
129.248 744.5 m 0
 128.206 723.004 136.298 712.418 153.01 712.418 c 0
 169.722 712.418 186.769 725.788 190.321 742.5 c 0
 193.873 759.212 201.667 795.875 208.922 830 c 25
 278.922 830 l 25
 262.343 752 l 2
 248.313 686 206.662 650 139.662 650 c 0
 78.6621 650 58.3574 681.5 60.6738 746.5 c 0
 61.4141 767.278 51.7627 777.5 34.7627 777.5 c 0
 17.7627 777.5 0.613281 763.499 -2.61426 747.5 c 2
 -21.2129 660 l 25
 -90.2129 660 l 25
 -73.6328 738 l 2
 -59.7109 803.5 -16.9521 840 49.0479 840 c 0
 108.048 840 132.352 808.5 129.248 744.5 c 0
EndSplineSet
Validated: 33
EndChar

StartChar: uni0599
Encoding: 1433 1433 105
Width: 0
VWidth: 1000
Flags: W
HStem: 660 213<-17.3103 37.1244>
VStem: 76.6895 87.9995<660 843.171>
LayerCount: 2
Fore
SplineSet
127.159 873 m 21
 170.433 818.63 182.387 743.258 164.689 660 c 13
 76.6895 660 l 17
 94.3867 743.258 76.4326 818.63 33.1592 873 c 9
 127.159 873 l 21
EndSplineSet
Validated: 33
EndChar

StartChar: uni059A
Encoding: 1434 1434 106
Width: 0
VWidth: 1000
Flags: W
HStem: -281.504 261.008
VStem: -190.828 204.533
LayerCount: 2
Fore
SplineSet
-32.6855 -20.4961 m 1
 13.7051 -79.4092 l 1
 -73.002 -150.917 l 1
 -16.5635 -222.591 l 1
 -87.999 -281.504 l 1
 -190.828 -150.917 l 1
 -32.6855 -20.4961 l 1
EndSplineSet
Validated: 1
EndChar

StartChar: uni059B
Encoding: 1435 1435 107
Width: 0
VWidth: 1000
Flags: W
HStem: -142.353 82.353<-194.604 -129.756>
VStem: -46.9033 88<-131.723 -60>
LayerCount: 2
Fore
SplineSet
-194.604 -60 m 1
 -112.251 -60 l 1
 -129.756 -142.353 l 1
 -212.108 -142.353 l 1
 -194.604 -60 l 1
-86.9834 -273 m 13
 -180.983 -273 l 17
 -114.597 -218.63 -64.6006 -143.258 -46.9033 -60 c 9
 41.0967 -60 l 21
 23.3994 -143.258 -20.5967 -218.63 -86.9834 -273 c 13
EndSplineSet
Validated: 1
EndChar

StartChar: uni059C
Encoding: 1436 1436 108
Width: 0
VWidth: 1000
Flags: W
HStem: 660 213
VStem: -12.1152 88<660 731.723>
LayerCount: 2
Fore
SplineSet
115.964 873 m 9
 209.964 873 l 21
 143.577 818.63 93.582 743.258 75.8848 660 c 13
 -12.1152 660 l 17
 5.58203 743.258 49.5771 818.63 115.964 873 c 9
EndSplineSet
Validated: 1
EndChar

StartChar: uni059D
Encoding: 1437 1437 109
Width: 0
VWidth: 1000
Flags: W
HStem: 660 213
VStem: -12.1152 88<660 731.723>
LayerCount: 2
Fore
SplineSet
115.964 873 m 9
 209.964 873 l 21
 143.577 818.63 93.582 743.258 75.8848 660 c 13
 -12.1152 660 l 17
 5.58203 743.258 49.5771 818.63 115.964 873 c 9
EndSplineSet
Validated: 1
EndChar

StartChar: uni059E
Encoding: 1438 1438 110
Width: 0
VWidth: 1000
Flags: W
HStem: 660 213
VStem: -82.1143 87.9991<660 731.723> 57.8848 88.0002<660 731.723>
LayerCount: 2
Fore
SplineSet
185.964 873 m 9
 279.964 873 l 21
 213.577 818.63 163.582 743.258 145.885 660 c 13
 57.8848 660 l 17
 75.582 743.258 119.577 818.63 185.964 873 c 9
45.9639 873 m 9
 139.964 873 l 21
 73.5771 818.63 23.582 743.258 5.88477 660 c 13
 -82.1143 660 l 17
 -64.418 743.258 -20.4229 818.63 45.9639 873 c 9
EndSplineSet
Validated: 1
EndChar

StartChar: uni059F
Encoding: 1439 1439 111
Width: 0
VWidth: 1000
Flags: W
HStem: 663.953 58.498<-104.151 -36.3642 225.67 292.622> 795.188 58.5<-98.0361 -30.7008 231.401 298.737>
LayerCount: 2
Fore
SplineSet
269.741 795.188 m 4
 249.666 795.188 229.916 778.901 225.649 758.826 c 4
 221.383 738.751 234.206 722.451 254.28 722.451 c 4
 274.354 722.451 294.107 738.751 298.374 758.826 c 4
 302.642 778.901 289.815 795.188 269.741 795.188 c 4
182.705 689.291 m 1
 122.317 663.672 l 1
 106.071 727.641 l 1
 166.091 753.098 l 1
 166.38 754.993 166.729 756.904 167.138 758.828 c 0
 178.268 811.188 229.801 853.688 282.176 853.688 c 0
 334.551 853.688 368.018 811.188 356.888 758.828 c 0
 345.755 706.453 294.222 663.953 241.847 663.953 c 0
 216.933 663.953 196.298 673.569 182.705 689.291 c 1
-59.6963 795.188 m 0
 -79.7705 795.188 -99.5205 778.901 -103.787 758.826 c 0
 -108.055 738.751 -95.2314 722.451 -75.1572 722.451 c 0
 -55.082 722.451 -35.3301 738.751 -31.0625 758.826 c 0
 -26.7959 778.901 -39.6211 795.188 -59.6963 795.188 c 0
-17.6787 689.291 m 1
 -37.9541 673.569 -62.6777 663.953 -87.5918 663.953 c 0
 -139.967 663.953 -173.433 706.453 -162.3 758.828 c 0
 -151.171 811.188 -99.6367 853.688 -47.2617 853.688 c 0
 5.11328 853.688 38.5791 811.188 27.4502 758.828 c 0
 27.041 756.904 26.5771 754.993 26.0615 753.098 c 1
 75.2588 727.641 l 1
 31.8174 663.672 l 1
 -17.6787 689.291 l 1
EndSplineSet
Validated: 33
EndChar

StartChar: uni05A0
Encoding: 1440 1440 112
Width: 0
VWidth: 1000
Flags: W
HStem: 663.953 58.498<88.1699 155.122> 795.188 58.5<93.9013 161.237>
VStem: -31.4287 250.817
LayerCount: 2
Fore
SplineSet
132.241 795.188 m 4
 112.166 795.188 92.417 778.901 88.1494 758.826 c 4
 83.8828 738.751 96.7051 722.451 116.78 722.451 c 4
 136.855 722.451 156.607 738.751 160.875 758.826 c 4
 165.142 778.901 152.316 795.188 132.241 795.188 c 4
45.2061 689.291 m 1
 -15.1826 663.672 l 1
 -31.4287 727.641 l 1
 28.5908 753.098 l 1
 28.8799 754.993 29.2285 756.904 29.6377 758.828 c 0
 40.7676 811.188 92.3008 853.688 144.676 853.688 c 0
 197.051 853.688 230.518 811.188 219.388 758.828 c 0
 208.255 706.453 156.722 663.953 104.347 663.953 c 0
 79.4326 663.953 58.7979 673.569 45.2061 689.291 c 1
EndSplineSet
Validated: 33
EndChar

StartChar: uni05A1
Encoding: 1441 1441 113
Width: 0
VWidth: 1000
Flags: W
HStem: 704 74<64.8691 139.373>
VStem: 157.984 71.45<796.35 848>
LayerCount: 2
Fore
SplineSet
49.1396 704 m 1
 39.7871 660 l 1
 -42.2129 660 l 1
 -2.25195 848 l 1
 79.748 848 l 1
 64.8691 778 l 1
 88.8691 778 l 2
 120.869 778 151.396 804 157.984 835 c 1
 160.748 848 l 1
 234.748 848 l 1
 229.434 823 l 1
 215.618 758 151.14 704 85.1396 704 c 2
 49.1396 704 l 1
EndSplineSet
Validated: 1
EndChar

StartChar: uni05A3
Encoding: 1443 1443 114
Width: 0
VWidth: 1000
Flags: W
HStem: -260 82.588<-226.827 -59.1807>
VStem: -244.382 292.745
LayerCount: 2
Fore
SplineSet
48.3633 -60 m 1
 5.85254 -260 l 1
 -244.382 -260 l 1
 -226.827 -177.412 l 1
 -59.1807 -177.412 l 5
 -34.2236 -60 l 5
 48.3633 -60 l 1
EndSplineSet
Validated: 1
EndChar

StartChar: uni05A4
Encoding: 1444 1444 115
Width: 0
VWidth: 1000
Flags: W
HStem: -281.504 261.008
VStem: -190.828 204.533
LayerCount: 2
Fore
SplineSet
-32.6855 -20.4961 m 1
 13.7051 -79.4092 l 1
 -73.002 -150.917 l 1
 -16.5635 -222.591 l 1
 -87.999 -281.504 l 1
 -190.828 -150.917 l 1
 -32.6855 -20.4961 l 1
EndSplineSet
Validated: 1
EndChar

StartChar: uni05A5
Encoding: 1445 1445 116
Width: 0
VWidth: 1000
Flags: W
HStem: -273 213
VStem: -76.3506 87.999<-131.723 -60>
LayerCount: 2
Fore
SplineSet
-116.431 -273 m 13
 -210.431 -273 l 17
 -144.044 -218.63 -94.0479 -143.258 -76.3506 -60 c 9
 11.6484 -60 l 21
 -6.04785 -143.258 -50.0439 -218.63 -116.431 -273 c 13
EndSplineSet
Validated: 1
EndChar

StartChar: uni05A6
Encoding: 1446 1446 117
Width: 0
VWidth: 1000
Flags: W
HStem: -273 213
VStem: -146.352 88.0004<-131.723 -60> -6.35156 88<-131.723 -60>
LayerCount: 2
Fore
SplineSet
-186.431 -273 m 9
 -280.43 -273 l 17
 -214.043 -218.63 -164.048 -143.258 -146.352 -60 c 9
 -58.3516 -60 l 17
 -76.0479 -143.258 -120.044 -218.63 -186.431 -273 c 9
-46.4307 -273 m 13
 -140.431 -273 l 21
 -74.0439 -218.63 -24.0479 -143.258 -6.35156 -60 c 13
 81.6484 -60 l 21
 63.9512 -143.258 19.957 -218.63 -46.4307 -273 c 13
EndSplineSet
Validated: 1
EndChar

StartChar: uni05A7
Encoding: 1447 1447 118
Width: 0
VWidth: 1000
Flags: W
HStem: -257.647 68.47<-213.094 -116.211> -128.471 68.471<-79.3096 17.5752>
VStem: -227.765 260.012
LayerCount: 2
Fore
SplineSet
32.2471 -60 m 1
 17.5752 -128.471 l 1
 -79.3096 -128.471 l 1
 2.00293 -201.177 l 1
 -9.76465 -257.647 l 1
 -227.765 -257.647 l 1
 -213.094 -189.177 l 1
 -116.211 -189.177 l 1
 -197.522 -116.471 l 1
 -185.753 -60 l 1
 32.2471 -60 l 1
EndSplineSet
Validated: 1
EndChar

StartChar: uni05A8
Encoding: 1448 1448 119
Width: 0
VWidth: 1000
Flags: W
HStem: 660 213<-17.3103 37.1244>
VStem: 76.6895 87.9995<660 843.171>
LayerCount: 2
Fore
SplineSet
127.159 873 m 21
 170.433 818.63 182.387 743.258 164.689 660 c 13
 76.6895 660 l 17
 94.3867 743.258 76.4326 818.63 33.1592 873 c 9
 127.159 873 l 21
EndSplineSet
Validated: 33
EndChar

StartChar: uni05A9
Encoding: 1449 1449 120
Width: 0
VWidth: 1000
Flags: W
HStem: 663.953 58.498<33.349 101.136> 795.188 58.5<39.4636 106.799>
VStem: -24.7998 237.559
LayerCount: 2
Fore
SplineSet
77.8037 795.188 m 4
 57.7285 795.188 37.9795 778.901 33.7119 758.826 c 4
 29.4453 738.751 42.2676 722.451 62.3428 722.451 c 4
 82.418 722.451 102.17 738.751 106.437 758.826 c 4
 110.704 778.901 97.8789 795.188 77.8037 795.188 c 4
119.821 689.291 m 1
 99.5459 673.569 74.8232 663.953 49.9092 663.953 c 0
 -2.46582 663.953 -35.9326 706.453 -24.7998 758.828 c 0
 -13.6709 811.188 37.8633 853.688 90.2383 853.688 c 0
 142.613 853.688 176.079 811.188 164.95 758.828 c 0
 164.541 756.904 164.077 754.993 163.562 753.098 c 1
 212.759 727.641 l 1
 169.317 663.672 l 1
 119.821 689.291 l 1
EndSplineSet
Validated: 33
EndChar

StartChar: uni05AA
Encoding: 1450 1450 121
Width: 0
VWidth: 1000
Flags: W
HStem: -185 73.703<-125.363 -40.0141>
VStem: -201.753 73.702<-105.82 -60> -25.4561 73.6993<-94.2077 -60>
LayerCount: 2
Fore
SplineSet
48.2432 -60 m 17
 33.5801 -129 -34.3232 -185 -103.323 -185 c 0
 -172.323 -185 -216.42 -129 -201.753 -60 c 9
 -128.051 -60 l 17
 -133.982 -87.9062 -115.563 -111.297 -87.6572 -111.297 c 0
 -59.751 -111.297 -31.3877 -87.9062 -25.4561 -60 c 9
 48.2432 -60 l 17
EndSplineSet
Validated: 33
EndChar

StartChar: uni05AB
Encoding: 1451 1451 122
Width: 0
VWidth: 1000
Flags: W
HStem: 618.992 261.008
VStem: 0.578125 204.533
LayerCount: 2
Fore
SplineSet
158.721 880 m 1
 205.111 821.087 l 1
 118.404 749.579 l 1
 174.843 677.905 l 1
 103.408 618.992 l 1
 0.578125 749.579 l 1
 158.721 880 l 1
EndSplineSet
Validated: 1
EndChar

StartChar: uni05AC
Encoding: 1452 1452 123
Width: 0
VWidth: 1000
Flags: W
HStem: 660 82.588<-31.2754 136.371>
VStem: -48.8301 292.746
LayerCount: 2
Fore
SplineSet
243.916 860 m 1
 201.404 660 l 1
 -48.8301 660 l 1
 -31.2754 742.588 l 5
 136.371 742.588 l 5
 161.328 860 l 1
 243.916 860 l 1
EndSplineSet
Validated: 1
EndChar

StartChar: uni05AD
Encoding: 1453 1453 124
Width: 0
VWidth: 1000
Flags: W
HStem: -273 213<-131.591 -127.626>
VStem: -165.155 87.9997<-243.171 -60>
LayerCount: 2
Fore
SplineSet
-127.626 -273 m 17
 -170.899 -218.63 -182.853 -143.258 -165.155 -60 c 9
 -77.1553 -60 l 21
 -94.8525 -143.258 -76.8994 -218.63 -33.626 -273 c 13
 -127.626 -273 l 17
EndSplineSet
Validated: 33
EndChar

StartChar: uni05AE
Encoding: 1454 1454 125
Width: 0
VWidth: 1000
Flags: W
HStem: 650 62.418<130.35 187.852> 777.5 62.5<0.506321 60.0879>
VStem: 60.6738 68.5742<713.458 777.079>
LayerCount: 2
Fore
SplineSet
129.248 744.5 m 0
 128.206 723.004 136.298 712.418 153.01 712.418 c 0
 169.722 712.418 186.769 725.788 190.321 742.5 c 0
 193.873 759.212 201.667 795.875 208.922 830 c 25
 278.922 830 l 25
 262.343 752 l 2
 248.313 686 206.662 650 139.662 650 c 0
 78.6621 650 58.3574 681.5 60.6738 746.5 c 0
 61.4141 767.278 51.7627 777.5 34.7627 777.5 c 0
 17.7627 777.5 0.613281 763.499 -2.61426 747.5 c 2
 -21.2129 660 l 25
 -90.2129 660 l 25
 -73.6328 738 l 2
 -59.7109 803.5 -16.9521 840 49.0479 840 c 0
 108.048 840 132.352 808.5 129.248 744.5 c 0
EndSplineSet
Validated: 33
EndChar

StartChar: uni05AF
Encoding: 1455 1455 126
Width: 0
VWidth: 1000
Flags: W
HStem: 640.235 73.129<53.5214 132.15> 804.281 73.129<62.4359 141.064>
VStem: -21.2949 237.176
LayerCount: 2
Fore
SplineSet
106.955 804.281 m 4
 81.8613 804.281 57.168 783.917 51.834 758.823 c 4
 46.5 733.73 62.5361 713.364 87.6299 713.364 c 4
 112.724 713.364 137.418 733.73 142.752 758.823 c 4
 148.086 783.917 132.049 804.281 106.955 804.281 c 4
122.499 877.41 m 0
 187.96 877.41 229.795 824.284 215.881 758.823 c 0
 201.967 693.363 137.547 640.235 72.0859 640.235 c 0
 6.625 640.235 -35.209 693.363 -21.2949 758.823 c 0
 -7.38086 824.284 57.0381 877.41 122.499 877.41 c 0
EndSplineSet
Validated: 33
EndChar

StartChar: afii57674
Encoding: 1498 1498 127
Width: 533
VWidth: 1000
Flags: W
HStem: -200 21G<237.488 380.739> 485 115<88.5342 320.097>
VStem: 356.598 141.628<263.125 449.731>
AnchorPoint: "DiaToBaseD" 204 0 basechar 0
AnchorPoint: "DiaToBaseU" 254 0 basechar 0
AnchorPoint: "DiaToBase3" 254 0 basechar 0
AnchorPoint: "DiaToBase2" 150 0 basechar 0
AnchorPoint: "DiaToBase1" 200 0 basechar 0
LayerCount: 2
Fore
SplineSet
237.488 -200 m 25
 348.019 320 l 18
 353.332 345 359.347 378 356.598 398 c 0
 353.849 418 347.675 436 333.65 450 c 0
 319.626 464 301.539 473 279.814 479 c 0
 263.665 483 242.09 485 219.09 485 c 2
 64.0898 485 l 1
 88.5342 600 l 1
 250.534 600 l 2
 289.534 600 320.108 598 350.834 592 c 0
 392.133 584 424.732 568 450.418 543 c 0
 476.892 517 493.09 485 498.226 448 c 0
 503.723 408 494.458 355 484.468 308 c 10
 376.488 -200 l 25
 237.488 -200 l 25
EndSplineSet
Validated: 33
Comment: "%DiaToBase1+AD0A-200+AAoA%DiaToBase2+AD0A-150+AAoA%DiaToBase3+AD0A-254+AAoA%DiaToBaseO+AD0A-0+AAoA%DiaToBaseU+AD0A-254+AAoA" 
EndChar

StartChar: afii57675
Encoding: 1499 1499 128
Width: 542
VWidth: 1000
Flags: W
HStem: 0 115<15.4443 280.392> 485 115<118.534 349.334>
VStem: 386.598 140.628<262.543 449.341>
AnchorPoint: "DiaToBaseD" 236 0 basechar 0
AnchorPoint: "DiaToBaseU" 255 0 basechar 0
AnchorPoint: "DiaToBase3" 283 0 basechar 0
AnchorPoint: "DiaToBase2" 265 0 basechar 0
AnchorPoint: "DiaToBase1" 273 0 basechar 0
LayerCount: 2
Fore
SplineSet
152 0 m 6
 -9 0 l 1
 15.4443 115 l 1
 170.444 115 l 6
 193.444 115 214.869 117 232.72 121 c 4
 256.995 127 279.907 136 299.884 150 c 4
 319.859 164 333.473 181 344.724 201 c 4
 355.975 221 364.202 255 369.516 280 c 6
 378.019 320 l 6
 383.332 345 389.347 378 386.598 398 c 4
 383.849 418 377.675 436 363.65 450 c 4
 349.626 464 330.539 473 308.814 479 c 4
 292.665 483 272.09 485 249.09 485 c 6
 94.0898 485 l 1
 118.534 600 l 1
 279.534 600 l 6
 318.534 600 349.108 598 379.834 592 c 4
 421.133 584 454.732 568 480.418 543 c 4
 506.892 517 522.09 485 527.226 448 c 4
 532.723 408 523.458 355 513.468 308 c 6
 509.854 291 l 6
 499.863 244 486.811 192 464.309 152 c 4
 443.444 115 414.643 83 377.115 57 c 4
 340.802 32 300.401 16 255.7 8 c 4
 222.425 2 190 0 152 0 c 6
EndSplineSet
Validated: 33
Substitution2: "WideLetters" uniFB24
Comment: "%DiaToBase1+AD0A-273+AAoA%DiaToBase2+AD0A-265+AAoA%DiaToBase3+AD0A-283+AAoA%DiaToBaseO+AD0A-0+AAoA%DiaToBaseU+AD0A-255+AAoA" 
EndChar

StartChar: afii57676
Encoding: 1500 1500 129
Width: 598
VWidth: 1000
Flags: W
HStem: 0 115<164.444 298.529> 485 115<242.534 445.09>
AnchorPoint: "DiaToBaseD" 268 20 basechar 0
AnchorPoint: "DiaToBaseO" -60 0 basechar 0
AnchorPoint: "DiaToBaseU" 293 0 basechar 0
AnchorPoint: "DiaToBase3" 293 0 basechar 0
AnchorPoint: "DiaToBase2" 300 0 basechar 0
AnchorPoint: "DiaToBase1" 265 0 basechar 0
LayerCount: 2
Fore
SplineSet
445.09 485 m 5
 79.0898 485 l 1
 135.417 750 l 1
 274.417 750 l 1
 242.534 600 l 1
 616.534 600 l 5
 548.521 360 l 6
 523.391 270 495.023 193 464.82 145 c 4
 436.468 101 401.604 64 358.077 38 c 4
 317.976 14 266 0 201 0 c 6
 140 0 l 29
 164.444 115 l 29
 208.444 115 l 22
 251.444 115 282.782 126 304.183 142 c 4
 327.009 160 346.686 182 361.062 212 c 4
 379.139 250 388.578 285 398.23 321 c 6
 445.09 485 l 5
EndSplineSet
Validated: 1
Substitution2: "WideLetters" uniFB25
Comment: "%DiaToBase1+AD0A-265+AAoA%DiaToBase2+AD0A-300+AAoA%DiaToBase3+AD0A-293+AAoA%DiaToBaseO+AD0A--60+AAoA%DiaToBaseU+AD0A-293+AAoA" 
EndChar

StartChar: afii57677
Encoding: 1501 1501 130
Width: 669
VWidth: 1000
Flags: W
HStem: 0 115<179.444 435.444> 485 115<258.09 469.279>
VStem: 493.211 144.391<303.922 457.481>
AnchorPoint: "DiaToBaseD" 349 0 basechar 0
AnchorPoint: "DiaToBaseU" 337 0 basechar 0
AnchorPoint: "DiaToBase3" 337 0 basechar 0
AnchorPoint: "DiaToBase2" 337 0 basechar 0
AnchorPoint: "DiaToBase1" 337 0 basechar 0
LayerCount: 2
Fore
SplineSet
435.444 115 m 1
 483.481 341 l 2
 489.434 369 494.322 392 493.211 415 c 0
 491.824 432 486.013 447 474.351 458 c 0
 462.689 469 444.177 476 427.027 480 c 0
 408.877 484 387.09 485 361.09 485 c 2
 258.09 485 l 1
 179.444 115 l 1
 435.444 115 l 1
550 0 m 9
 16 0 l 17
 143.534 600 l 1
 395.534 600 l 2
 433.534 600 473.896 597 502.046 593 c 0
 537.771 587 569.22 575 593.756 554 c 0
 616.718 535 631.404 510 637.602 478 c 0
 641.713 455 638.849 418 628.008 367 c 2
 550 0 l 9
EndSplineSet
Validated: 33
Substitution2: "WideLetters" uniFB26
Comment: "%DiaToBase1+AD0A-337+AAoA%DiaToBase2+AD0A-337+AAoA%DiaToBase3+AD0A-337+AAoA%DiaToBaseO+AD0A-0+AAoA%DiaToBaseU+AD0A-337+AAoA" 
EndChar

StartChar: afii57678
Encoding: 1502 1502 131
Width: 667
VWidth: 1000
Flags: W
HStem: 0 115<260.444 431.444> 485 115<127.534 195.09 298.721 436.437>
AnchorPoint: "DiaToBaseD" 340 0 basechar 0
AnchorPoint: "DiaToBaseU" 330 0 basechar 0
AnchorPoint: "DiaToBase3" 335 0 basechar 0
AnchorPoint: "DiaToBase2" 345 0 basechar 0
AnchorPoint: "DiaToBase1" 345 0 basechar 0
LayerCount: 2
Fore
SplineSet
195.09 485 m 1
 103.09 485 l 1
 127.534 600 l 1
 358.733 600 l 6
 400.134 600 430.351 598.199 461.604 592.8 c 4
 503.273 585.6 538.395 573 566.203 551.399 c 4
 594.012 529.8 612.189 501 618.096 469.5 c 4
 625.225 435.3 621.499 396.6 613.543 350.699 c 6
 551 0 l 1
 224 0 l 1
 260.444 115 l 1
 431.444 115 l 1
 465.434 326.9 l 6
 470.059 356.65 472.078 382.15 470.283 401.7 c 4
 468.308 420.4 460.871 437.4 448.463 451 c 4
 435.203 464.601 418.491 473.95 397.475 479.05 c 4
 381.378 483.3 363.89 485 340.09 485 c 6
 315.09 485 l 1
 281.525 440 259.022 400 239.245 354 c 0
 217.404 303 201.627 257 186.212 208 c 2
 121 0 l 1
 -19 0 l 1
 41.8105 192 l 2
 55.1631 236 71.791 286 92.6318 337 c 0
 115.96 395 150.588 445 195.09 485 c 1
EndSplineSet
Validated: 33
Comment: "%DiaToBase1+AD0A-345+AAoA%DiaToBase2+AD0A-345+AAoA%DiaToBase3+AD0A-335+AAoA%DiaToBaseO+AD0A-0+AAoA%DiaToBaseU+AD0A-330+AAoA" 
EndChar

StartChar: afii57679
Encoding: 1503 1503 132
Width: 274
VWidth: 1000
Flags: W
HStem: -200 21G<-41.5117 101.739> 580 20G<124.283 267.534>
VStem: -41.5117 309.046
AnchorPoint: "DiaToBaseD" 71 0 basechar 0
AnchorPoint: "DiaToBaseU" 149 0 basechar 0
AnchorPoint: "DiaToBase3" 149 0 basechar 0
AnchorPoint: "DiaToBase2" 149 0 basechar 0
AnchorPoint: "DiaToBase1" 149 0 basechar 0
LayerCount: 2
Fore
SplineSet
-41.5117 -200 m 1
 128.534 600 l 1
 267.534 600 l 5
 97.4883 -200 l 1
 -41.5117 -200 l 1
EndSplineSet
Validated: 1
Comment: "%DiaToBase1+AD0A-149+AAoA%DiaToBase2+AD0A-149+AAoA%DiaToBase3+AD0A-149+AAoA%DiaToBaseO+AD0A-0+AAoA%DiaToBaseU+AD0A-149+AAoA" 
EndChar

StartChar: afii57680
Encoding: 1504 1504 133
Width: 391
VWidth: 1000
Flags: W
HStem: 0 115<10.4443 157.444> 485 115<124.534 205.893>
AnchorPoint: "DiaToBaseD" 107 0 basechar 0
AnchorPoint: "DiaToBaseU" 190 0 basechar 0
AnchorPoint: "DiaToBase3" 198 0 basechar 0
AnchorPoint: "DiaToBase2" 198 0 basechar 0
AnchorPoint: "DiaToBase1" 198 0 basechar 0
LayerCount: 2
Fore
SplineSet
135.09 485 m 2
 100.09 485 l 9
 124.534 600 l 17
 187.534 600 l 6
 216.534 600 237.321 599 259.471 595 c 4
 289.408 590 313.646 577 331.819 559 c 4
 350.993 541 361.892 517 365.152 490 c 4
 368.988 461 361.911 423 354.897 390 c 6
 272 0 l 1
 -14 0 l 1
 10.4443 115 l 1
 157.444 115 l 1
 214.622 384 l 2
 217.811 399 220.273 420 218.824 432 c 0
 217.375 444 212.501 454 204.414 463 c 0
 196.327 472 185.602 478 172.239 481 c 0
 161.877 484 150.09 485 135.09 485 c 2
EndSplineSet
Validated: 33
Comment: "%DiaToBase1+AD0A-198+AAoA%DiaToBase2+AD0A-198+AAoA%DiaToBase3+AD0A-198+AAoA%DiaToBaseO+AD0A-0+AAoA%DiaToBaseU+AD0A-190+AAoA" 
EndChar

StartChar: afii57681
Encoding: 1505 1505 134
Width: 653
VWidth: 1000
Flags: W
HStem: -8 115<230.202 379.963> 485 115<248.091 465.789>
VStem: 489.472 144.742<288.906 461.328>
AnchorPoint: "DiaToBaseD" 343 0 basechar 0
AnchorPoint: "DiaToBaseU" 321 0 basechar 0
AnchorPoint: "DiaToBase3" 330 0 basechar 0
AnchorPoint: "DiaToBase2" 345 0 basechar 0
AnchorPoint: "DiaToBase1" 340 0 basechar 0
LayerCount: 2
Fore
SplineSet
483.969 348 m 2
 488.433 369 491.055 396 489.472 413 c 0
 487.889 430 482.339 443 472.418 455 c 0
 461.459 467 447.571 475 429.716 479 c 0
 416.845 482 400.854 485 382.148 485 c 2
 248.091 485 l 1
 205.792 286 l 2
 197.503 247 189.024 212 196.771 180 c 0
 206.549 138 246.724 107 299.724 107 c 0
 352.724 107 407.117 138 434.749 180 c 0
 456.1 212 462.5 247 470.79 286 c 2
 483.969 348 l 2
133.534 600 m 1
 403.506 600 l 2
 440.181 600 468.282 598 496.763 593 c 0
 535.006 586 565.862 573 589.712 551 c 0
 614.579 529 628.79 500 634.214 468 c 0
 640.017 433 631.685 389 622.97 348 c 2
 611.491 294 l 2
 598.525 233 585.56 172 544.537 118 c 0
 489.289 45 382.26 -8 275.289 -8 c 0
 168.32 -8 84.8408 45 60.627 118 c 0
 42.5596 172 55.3135 232 68.4912 294 c 2
 133.534 600 l 1
EndSplineSet
Validated: 33
Comment: "%DiaToBase1+AD0A-340+AAoA%DiaToBase2+AD0A-345+AAoA%DiaToBase3+AD0A-330+AAoA%DiaToBaseO+AD0A-0+AAoA%DiaToBaseU+AD0A-321+AAoA" 
EndChar

StartChar: afii57682
Encoding: 1506 1506 135
Width: 645
VWidth: 1000
Flags: W
HStem: 580 20G<123.534 263.798 515.846 663.534>
VStem: 129.405 140.377<126 600>
AnchorPoint: "DiaToBaseD" 361 66 basechar 0
AnchorPoint: "DiaToBaseU" 315 0 basechar 0
AnchorPoint: "DiaToBase3" 315 0 basechar 0
AnchorPoint: "DiaToBase2" 315 0 basechar 0
AnchorPoint: "DiaToBase1" 315 0 basechar 0
LayerCount: 2
Fore
SplineSet
663.534 600 m 17
 563.714 248 l 2
 528.357 124 426.99 47 313.676 22 c 2
 -25.6904 -55 l 1
 1.02832 66 l 1
 129.405 96 l 1
 123.534 600 l 5
 263.534 600 l 1
 269.782 126 l 1
 314.333 138 l 2
 369.309 152 405.811 192 422.564 252 c 2
 521.534 600 l 1
 663.534 600 l 17
EndSplineSet
Validated: 1
Substitution2: "MiscSAlt" uniFB20
Substitution2: "Single Substitution lookup 11 subtable" uniFB20
Comment: "%DiaToBase1+AD0A-315+AAoA%DiaToBase2+AD0A-315+AAoA%DiaToBase3+AD0A-315+AAoA%DiaToBaseO+AD0A-0+AAoA%DiaToBaseU+AD0A-315+AAoA" 
EndChar

StartChar: afii57683
Encoding: 1507 1507 136
Width: 623
VWidth: 1000
Flags: W
HStem: -200 21G<327.488 470.739> 177 114<214.694 276.048> 485 115<233.09 429.289>
VStem: 62.6025 144.668<299.324 446.719> 452.211 144.391<307.188 457.481>
AnchorPoint: "DiaToBaseD" 338 80 basechar 0
AnchorPoint: "DiaToBaseU" 314 0 basechar 0
AnchorPoint: "DiaToBase3" 314 0 basechar 0
AnchorPoint: "DiaToBase2" 314 0 basechar 0
AnchorPoint: "DiaToBase1" 314 0 basechar 0
LayerCount: 2
Fore
SplineSet
211.622 384 m 6
 208.646 370 206.607 351 207.27 340 c 4
 207.931 329 210.806 319 217.105 311 c 4
 223.404 303 233.129 297 243.491 294 c 4
 251.066 292 261.854 291 273.854 291 c 12
 283.854 291 300.279 293 300.279 293 c 5
 276.048 179 l 5
 276.048 179 249.622 177 232.622 177 c 20
 206.622 177 184.835 178 163.686 182 c 4
 135.748 187 113.874 197 95.0615 212 c 4
 76.4629 228 66.7139 248 62.6025 271 c 4
 56.8301 305 63.2695 340 72.1963 382 c 6
 118.534 600 l 1
 354.534 600 l 2
 392.534 600 432.896 597 461.046 593 c 0
 496.771 587 528.22 575 552.756 554 c 0
 575.718 535 590.404 510 596.602 478 c 0
 600.713 455 597.849 418 587.008 367 c 2
 466.488 -200 l 1
 327.488 -200 l 17
 442.481 341 l 2
 448.434 369 453.322 392 452.211 415 c 0
 450.824 432 445.013 447 433.351 458 c 0
 421.689 469 403.177 476 386.027 480 c 0
 367.877 484 346.09 485 320.09 485 c 2
 233.09 485 l 1
 211.622 384 l 6
EndSplineSet
Validated: 33
Comment: "%DiaToBase1+AD0A-314+AAoA%DiaToBase2+AD0A-314+AAoA%DiaToBase3+AD0A-314+AAoA%DiaToBaseO+AD0A-0+AAoA%DiaToBaseU+AD0A-314+AAoA" 
EndChar

StartChar: afii57684
Encoding: 1508 1508 137
Width: 632
VWidth: 1000
Flags: W
HStem: 0 115<40.4443 364.562> 239 114<252.261 309.225> 485 115<258.09 432.849>
VStem: 100.498 144.719<360.35 483>
AnchorPoint: "DiaToBaseD" 397 84 basechar 0
AnchorPoint: "DiaToBaseU" 320 0 basechar 0
AnchorPoint: "DiaToBase3" 326 0 basechar 0
AnchorPoint: "DiaToBase2" 320 0 basechar 0
AnchorPoint: "DiaToBase1" 326 0 basechar 0
LayerCount: 2
Fore
SplineSet
110.375 444 m 2
 143.534 600 l 1
 369.534 600 l 2
 407.333 600 436.954 598 466.692 592 c 0
 506.668 584 539.128 568 563.859 543 c 0
 589.348 517 603.869 485 608.604 448 c 0
 613.67 408 604.344 355 594.354 308 c 2
 590.74 291 l 2
 580.75 244 567.758 192 545.688 152 c 0
 525.223 115 497.099 83 460.557 57 c 0
 425.198 32 385.936 16 342.56 8 c 0
 310.271 2 278.83 0 242 0 c 2
 16 0 l 257
 40.4443 115 l 257
 260.444 115 l 2
 282.042 115 302.186 117 318.999 121 c 0
 341.873 127 363.505 136 382.444 150 c 0
 401.382 164 414.387 181 425.211 201 c 0
 436.036 221 444.201 255 449.515 280 c 2
 458.018 320 l 2
 463.331 345 469.407 378 467.085 398 c 0
 464.763 418 459.197 436 446.212 450 c 0
 433.224 464 415.417 473 395.095 479 c 0
 379.98 483 360.688 485 339.09 485 c 258
 258.09 485 l 257
 249.8 446 l 258
 246.824 432 244.693 413 245.217 402 c 0
 245.739 391 248.382 381 254.311 373 c 0
 260.24 365 269.456 359 279.31 356 c 0
 286.514 354 296.791 353 308.235 353 c 8
 317.938 353 333.458 355 333.458 355 c 1
 309.225 241 l 1
 309.225 241 283.118 239 266.67 239 c 16
 241.197 239 219.854 240 199.149 244 c 0
 171.801 249 150.411 259 132.047 274 c 0
 113.893 290 104.427 310 100.498 333 c 0
 94.9873 367 101.873 404 110.375 444 c 2
EndSplineSet
Validated: 33
Comment: "%DiaToBase1+AD0A-326+AAoA%DiaToBase2+AD0A-320+AAoA%DiaToBase3+AD0A-326+AAoA%DiaToBaseO+AD0A-0+AAoA%DiaToBaseU+AD0A-320+AAoA" 
EndChar

StartChar: afii57685
Encoding: 1509 1509 138
Width: 598
VWidth: 1000
Flags: W
HStem: -200 21G<99.4883 242.739> 580 20G<64.4717 225.382 475.297 621.534>
AnchorPoint: "DiaToBaseD" 356 173 basechar 0
AnchorPoint: "DiaToBaseU" 279 0 basechar 0
AnchorPoint: "DiaToBase3" 279 0 basechar 0
AnchorPoint: "DiaToBase2" 279 0 basechar 0
AnchorPoint: "DiaToBase1" 279 0 basechar 0
LayerCount: 2
Fore
SplineSet
308.129 297 m 1
 327.192 302 346.105 311 359.443 322 c 0
 376.419 336 391.245 354 402.709 375 c 0
 414.385 397 428.824 432 437.563 459 c 2
 481.534 600 l 1
 621.534 600 l 1
 578.626 464 l 2
 563.424 416 543.945 362 518.443 322 c 0
 494.578 285 467.202 255 430.525 233 c 0
 397.274 213 362.361 204 323.724 201 c 1
 238.488 -200 l 1
 99.4883 -200 l 1
 184.299 199 l 1
 64.4717 600 l 1
 219.534 600 l 1
 308.129 297 l 1
EndSplineSet
Validated: 1
Comment: "%DiaToBase1+AD0A-279+AAoA%DiaToBase2+AD0A-279+AAoA%DiaToBase3+AD0A-279+AAoA%DiaToBaseO+AD0A-0+AAoA%DiaToBaseU+AD0A-279+AAoA" 
EndChar

StartChar: afii57686
Encoding: 1510 1510 139
Width: 609
VWidth: 1000
Flags: W
HStem: 0 115<15.6777 313.91> 580 20G<93.5342 273.461 478.516 621.767>
AnchorPoint: "DiaToBaseD" 143 -83 basechar 0
AnchorPoint: "DiaToBaseU" 315 0 basechar 0
AnchorPoint: "DiaToBase3" 314 0 basechar 0
AnchorPoint: "DiaToBase2" 305 0 basechar 0
AnchorPoint: "DiaToBase1" 304 0 basechar 0
LayerCount: 2
Fore
SplineSet
490.324 71 m 1
 475.233 0 l 1
 -8.7666 0 l 1
 15.6777 115 l 1
 313.91 115 l 1
 93.5342 600 l 1
 252.534 600 l 1
 294.389 507 336.244 414 378.101 321 c 1
 398.621 333.5 411.777 346 420.966 361 c 0
 434.217 381 441.318 405 449.183 442 c 2
 482.767 600 l 1
 621.767 600 l 1
 592.222 461 l 2
 583.082 418 571.643 383 555.053 352 c 0
 538.889 323 517.575 298 487.898 276 c 0
 468.923 262 441.459 247.667 414.835 239.333 c 1
 438.495 186.333 466.666 124 490.324 71 c 1
EndSplineSet
Validated: 1
Comment: "%DiaToBase1+AD0A-304+AAoA%DiaToBase2+AD0A-305+AAoA%DiaToBase3+AD0A-314+AAoA%DiaToBaseO+AD0A-0+AAoA%DiaToBaseU+AD0A-315+AAoA" 
EndChar

StartChar: afii57687
Encoding: 1511 1511 140
Width: 669
VWidth: 1000
Flags: W
HStem: -200 21G<-26.5117 116.739> 0 115<264.444 393.775> 485 115<143.534 509.09>
AnchorPoint: "DiaToBaseD" 344 0 basechar 0
AnchorPoint: "DiaToBaseU" 440 0 basechar 0
AnchorPoint: "DiaToBase3" 440 0 basechar 0
AnchorPoint: "DiaToBase2" 405 0 basechar 0
AnchorPoint: "DiaToBase1" 350 0 basechar 0
LayerCount: 2
Fore
SplineSet
305.444 115 m 2
 324.444 115 339.082 118 352.72 121 c 0
 371.569 125 388.27 133 403.82 145 c 0
 418.371 157 429.135 170 437.748 187 c 0
 446.361 204 455.101 231 459.564 252 c 2
 509.09 485 l 1
 119.09 485 l 1
 143.534 600 l 1
 672.534 600 l 1
 598.564 252 l 2
 590.062 212 579.497 167 559.058 132 c 0
 540.256 100 514.092 71 480.415 49 c 0
 447.739 27 411.976 14 371.488 7 c 0
 341.425 2 313 0 277 0 c 2
 240 0 l 9
 264.444 115 l 1
 305.444 115 l 2
233.858 371 m 1
 112.488 -200 l 1
 -26.5117 -200 l 1
 94.8584 371 l 1
 233.858 371 l 1
EndSplineSet
Validated: 1
Comment: "%DiaToBase1+AD0A-350+AAoA%DiaToBase2+AD0A-405+AAoA%DiaToBase3+AD0A-440+AAoA%DiaToBaseO+AD0A-0+AAoA%DiaToBaseU+AD0A-440+AAoA" 
EndChar

StartChar: afii57688
Encoding: 1512 1512 141
Width: 542
VWidth: 1000
Flags: W
HStem: 0 21G<284 427.251> 485 115<83.5342 343.289>
VStem: 366.211 144.391<303.922 457.481>
AnchorPoint: "DiaToBaseD" 210 0 basechar 0
AnchorPoint: "DiaToBaseU" 350 0 basechar 0
AnchorPoint: "DiaToBase3" 280 0 basechar 0
AnchorPoint: "DiaToBase2" 370 0 basechar 0
AnchorPoint: "DiaToBase1" 410 0 basechar 0
LayerCount: 2
Fore
SplineSet
59.0898 485 m 1
 83.5342 600 l 1
 268.534 600 l 2
 306.534 600 346.896 597 375.046 593 c 0
 410.771 587 442.22 575 466.756 554 c 0
 489.718 535 504.404 510 510.602 478 c 0
 514.713 455 511.849 418 501.008 367 c 2
 423 0 l 1
 284 0 l 1
 356.481 341 l 2
 362.434 369 367.322 392 366.211 415 c 0
 364.824 432 359.013 447 347.351 458 c 0
 335.689 469 317.177 476 300.027 480 c 0
 281.877 484 260.09 485 234.09 485 c 2
 59.0898 485 l 1
EndSplineSet
Validated: 33
Substitution2: "WideLetters" uniFB27
Comment: "%DiaToBase1+AD0A-410+AAoA%DiaToBase2+AD0A-370+AAoA%DiaToBase3+AD0A-280+AAoA%DiaToBaseO+AD0A-0+AAoA%DiaToBaseU+AD0A-350+AAoA" 
EndChar

StartChar: afii57689
Encoding: 1513 1513 142
Width: 795
VWidth: 1000
Flags: W
HStem: -5 114.045<259.675 489.697> 223.928 100.072<209.388 322.453> 580 20G<124.283 267.534 399.283 542.534 675.283 818.534>
VStem: 60.1143 139.032<164.949 241.405>
AnchorPoint: "DiaToBaseD" 498 -56 basechar 0
AnchorPoint: "DiaToBaseU" 405 0 basechar 0
AnchorPoint: "DiaToBase3" 405 0 basechar 0
AnchorPoint: "DiaToBase2" 405 0 basechar 0
AnchorPoint: "DiaToBase1" 405 0 basechar 0
LayerCount: 2
Fore
SplineSet
199.146 241.405 m 1
 199.943 214.855 206.488 190.904 218.515 171.143 c 0
 232.419 148.453 253.698 132.929 279.172 123.375 c 0
 304.189 114.418 337.575 109.045 369.177 109.045 c 0
 400.781 109.045 436.451 114.418 465.276 123.375 c 0
 494.812 132.929 522.69 148.453 546.24 171.143 c 0
 569.078 193.235 587.08 220.105 599.403 250.558 c 0
 608.324 273.247 614.903 295.938 620.868 324 c 2
 679.534 600 l 1
 818.534 600 l 1
 766.458 355 l 2
 756.468 308 745.45 270 730.512 232 c 0
 709.869 181 679.723 136 641.475 99 c 0
 602.034 61 555.344 35 505.878 19 c 0
 457.604 4 397.864 -5 344.937 -5 c 0
 292.01 -5 236.097 4 194.199 19 c 0
 151.535 35 115.898 61 92.6113 99 c 0
 70.0928 136 59.0752 181 60.1143 232 c 0
 61.3311 270 66.4678 308 76.458 355 c 2
 128.534 600 l 1
 267.534 600 l 1
 208.868 324 l 1
 239.868 324 l 2
 255.868 324 277.293 326 291.144 330 c 0
 304.994 334 316.481 341 327.82 352 c 0
 339.158 363 348.921 376 355.322 392 c 0
 360.873 404 364.849 418 368.25 434 c 2
 403.534 600 l 1
 542.534 600 l 1
 504.911 423 l 2
 499.387 397.01 493.412 375.997 485.424 354.984 c 0
 474.398 326.782 458.546 301.896 438.604 281.438 c 0
 418.043 260.424 393.86 246.047 368.338 237.199 c 0
 343.437 228.904 312.701 223.928 285.537 223.928 c 0
 258.375 223.928 229.757 228.904 208.381 237.199 c 0
 205.223 238.484 202.141 239.885 199.146 241.405 c 1
EndSplineSet
Validated: 33
Comment: "%DiaToBase1+AD0A-405+AAoA%DiaToBase2+AD0A-405+AAoA%DiaToBase3+AD0A-405+AAoA%DiaToBaseO+AD0A-0+AAoA%DiaToBaseU+AD0A-405+AAoA" 
EndChar

StartChar: afii57690
Encoding: 1514 1514 143
Width: 723
VWidth: 1000
Flags: W
HStem: -10 115<2.38465 94.6511> 0 21G<465 608.251> 485 115<139.534 181.09 320.09 508.898>
AnchorPoint: "DiaToBaseD" 408 0 basechar 0
AnchorPoint: "DiaToBaseU" 380 0 basechar 0
AnchorPoint: "DiaToBase3" 360 0 basechar 0
AnchorPoint: "DiaToBase2" 360 0 basechar 0
AnchorPoint: "DiaToBase1" 375 0 basechar 0
LayerCount: 2
Fore
SplineSet
382.09 485 m 6x60
 320.09 485 l 1
 260.999 207 l 2
 252.71 168 241.507 120 222.492 87 c 0
 201.415 49 172.102 24 136.913 9 c 0
 109.362 -3 75.874 -10 35.874 -10 c 0
 15.874 -10 -3.7002 -8 -19.8506 -4 c 1
 5.44434 115 l 1
 17.7432 107 29.3184 105 46.3184 105 c 0xa0
 69.3184 105 90.8691 117 102.758 140 c 0
 111.371 157 114.772 173 118.599 191 c 2
 181.09 485 l 1
 115.09 485 l 1
 139.534 600 l 1
 389.534 600 l 6
 435.534 600 484.896 597 518.834 592 c 4
 562.346 585 599.944 569 629.631 544 c 4
 657.742 521 676.365 491 683.075 452 c 4
 688.337 425 684.771 380 671.593 318 c 6
 604 0 l 5
 465 0 l 5
 531.105 311 l 6
 538.119 344 545.283 373 543.022 400 c 4
 541.486 421 534.312 439 520.288 453 c 4
 506.264 467 483.965 475 462.814 479 c 4
 440.665 483 413.09 485 382.09 485 c 6x60
EndSplineSet
Validated: 33
Substitution2: "WideLetters" uniFB28
Comment: "%DiaToBase1+AD0A-375+AAoA%DiaToBase2+AD0A-360+AAoA%DiaToBase3+AD0A-360+AAoA%DiaToBaseO+AD0A-0+AAoA%DiaToBaseU+AD0A-380+AAoA" 
EndChar

StartChar: uni05F3
Encoding: 1523 1523 147
Width: 228
VWidth: 1000
Flags: W
HStem: 470 259<135.954 176.901>
VStem: 108.321 165.633
LayerCount: 2
Fore
SplineSet
273.954 729 m 257
 246.321 599 l 1
 176.901 470 l 1
 120.901 470 l 1
 108.321 599 l 1
 135.954 729 l 1
 273.954 729 l 257
EndSplineSet
Validated: 1
EndChar

StartChar: uni05F4
Encoding: 1524 1524 148
Width: 444
VWidth: 1000
Flags: W
HStem: 470 259<125.954 166.901 361.954 402.901>
LayerCount: 2
Fore
SplineSet
263.954 729 m 1
 236.321 599 l 1
 166.901 470 l 1
 110.901 470 l 1
 98.3213 599 l 1
 125.954 729 l 1
 263.954 729 l 1
499.954 729 m 257
 472.321 599 l 1
 402.901 470 l 1
 346.901 470 l 1
 334.321 599 l 1
 361.954 729 l 1
 499.954 729 l 257
EndSplineSet
Validated: 1
EndChar

StartChar: uni05F5
Encoding: 1525 1525 149
Width: 274
VWidth: 1000
Flags: W
HStem: 0 21G<1 144.251> 580 20G<124.283 267.534>
VStem: 1 266.534
LayerCount: 2
Fore
SplineSet
216.521 360 m 1
 72.8438 338 l 1
 128.534 600 l 1
 267.534 600 l 1
 216.521 360 l 1
54.1387 250 m 1
 197.815 272 l 5
 140 0 l 1
 1 0 l 1
 54.1387 250 l 1
EndSplineSet
Validated: 1
EndChar

StartChar: uni05F7
Encoding: 1527 1527 150
Width: 669
VWidth: 1000
Flags: W
HStem: -200 21G<-26.5117 116.739> 0 115<264.444 393.775> 485 115<258.09 509.09>
LayerCount: 2
Fore
SplineSet
305.444 115 m 2
 324.444 115 339.082 118 352.72 121 c 0
 371.569 125 388.27 133 403.82 145 c 0
 418.371 157 429.135 170 437.748 187 c 0
 446.361 204 455.101 231 459.564 252 c 2
 509.09 485 l 1
 258.09 485 l 1
 112.488 -200 l 1
 -26.5117 -200 l 9
 143.534 600 l 21
 672.534 600 l 1
 598.564 252 l 2
 590.062 212 579.497 167 559.058 132 c 0
 540.256 100 514.092 71 480.415 49 c 0
 447.739 27 411.976 14 371.488 7 c 0
 341.425 2 313 0 277 0 c 2
 240 0 l 1
 264.444 115 l 1
 305.444 115 l 2
EndSplineSet
Validated: 1
EndChar

StartChar: endash
Encoding: 8211 8211 155
Width: 736
VWidth: 1000
Flags: W
HStem: 207 104<87.1055 630.999>
LayerCount: 2
Fore
SplineSet
653.105 311 m 1
 630.999 207 l 1
 64.999 207 l 1
 87.1055 311 l 1
 653.105 311 l 1
EndSplineSet
Validated: 1
EndChar

StartChar: emdash
Encoding: 8212 8212 156
Width: 1180
VWidth: 1000
Flags: W
HStem: 207 104<87.1055 1075>
LayerCount: 2
Fore
SplineSet
1097.11 311 m 1
 1075 207 l 1
 64.999 207 l 5
 87.1055 311 l 1
 1097.11 311 l 1
EndSplineSet
Validated: 1
EndChar

StartChar: afii00208
Encoding: 8213 8213 157
Width: 1380
VWidth: 1000
Flags: W
HStem: 207 104<87.1055 1275>
LayerCount: 2
Fore
SplineSet
1297.11 311 m 5
 1275 207 l 5
 64.999 207 l 1
 87.1055 311 l 1
 1297.11 311 l 5
EndSplineSet
Validated: 1
EndChar

StartChar: uniFB27
Encoding: 64295 64295 162
Width: 1088
VWidth: 1000
Flags: W
HStem: 0 21G<830.5 973.751> 485 115<83.5342 889.789>
VStem: 912.711 144.389<303.922 457.481>
LayerCount: 2
Fore
SplineSet
59.0898 485 m 1
 83.5342 600 l 1
 815.034 600 l 6
 853.034 600 893.396 597 921.546 593 c 4
 957.271 587 988.72 575 1013.26 554 c 4
 1036.22 535 1050.9 510 1057.1 478 c 4
 1061.21 455 1058.35 418 1047.51 367 c 6
 969.5 0 l 5
 830.5 0 l 5
 902.981 341 l 6
 908.934 369 913.822 392 912.711 415 c 4
 911.324 432 905.513 447 893.851 458 c 4
 882.189 469 863.677 476 846.527 480 c 4
 828.377 484 806.59 485 780.59 485 c 6
 59.0898 485 l 1
EndSplineSet
Validated: 33
Comment: "%DiaToBase1+AD0A-546+AAoA%DiaToBase2+AD0A-546+AAoA%DiaToBase3+AD0A-546+AAoA%DiaToBaseO+AD0A-0+AAoA%DiaToBaseU+AD0A-546+AAoA" 
EndChar

StartChar: uniFB28
Encoding: 64296 64296 163
Width: 1259
VWidth: 1000
Flags: W
HStem: -10 115<2.38465 94.6511> 0 21G<1001 1144.25> 485 115<139.534 181.09 320.09 1044.9>
LayerCount: 2
Fore
SplineSet
918.09 485 m 6x60
 320.09 485 l 1
 260.999 207 l 2
 252.71 168 241.507 120 222.492 87 c 0
 201.415 49 172.102 24 136.913 9 c 0
 109.362 -3 75.874 -10 35.874 -10 c 0
 15.874 -10 -3.7002 -8 -19.8506 -4 c 1
 5.44434 115 l 1
 17.7432 107 29.3184 105 46.3184 105 c 0xa0
 69.3184 105 90.8691 117 102.758 140 c 0
 111.371 157 114.772 173 118.599 191 c 2
 181.09 485 l 1
 115.09 485 l 1
 139.534 600 l 1
 925.534 600 l 6
 971.534 600 1020.9 597 1054.83 592 c 4
 1098.35 585 1135.94 569 1165.63 544 c 4
 1193.74 521 1212.37 491 1219.08 452 c 4
 1224.34 425 1220.77 380 1207.59 318 c 6
 1140 0 l 5
 1001 0 l 5
 1067.11 311 l 6
 1074.12 344 1081.28 373 1079.02 400 c 4
 1077.49 421 1070.31 439 1056.29 453 c 4
 1042.26 467 1019.96 475 998.814 479 c 4
 976.665 483 949.09 485 918.09 485 c 6x60
EndSplineSet
Validated: 33
Comment: "%DiaToBase1+AD0A-615+AAoA%DiaToBase2+AD0A-615+AAoA%DiaToBase3+AD0A-615+AAoA%DiaToBaseO+AD0A-0+AAoA%DiaToBaseU+AD0A-615+AAoA" 
EndChar

StartChar: uniFB29
Encoding: 64297 64297 164
Width: 663
VWidth: 1000
Flags: W
HStem: 232 119<100.607 282.607 401.607 558.313>
LayerCount: 2
Fore
SplineSet
583.607 351 m 257
 558.313 232 l 261
 75.3135 232 l 261
 100.607 351 l 257
 282.607 351 l 257
 321.293 533 l 257
 440.293 533 l 257
 401.607 351 l 257
 583.607 351 l 257
EndSplineSet
Validated: 1
EndChar

StartChar: uniFB4F
Encoding: 64335 64335 197
Width: 645
VWidth: 1000
Flags: W
HStem: 0 21G<358.959 536.422> 580 20G<484.376 626.639>
LayerCount: 2
Fore
SplineSet
82.6943 549.005 m 1
 125.418 750 l 1
 264.418 750 l 1
 229.769 587.005 l 1
 373.007 310.665 l 1
 396.763 323.5 413.929 340.315 426.812 360 c 0
 439.9 380 447.179 405 455.043 442 c 2
 488.627 600 l 1
 626.639 600 l 1
 594.968 451 l 2
 585.828 408 575.443 373 559.035 342 c 0
 543.051 313 522.026 288 492.8 266 c 0
 471.709 249.901 448.983 237.5 418.49 226.484 c 1
 536.422 0 l 1
 369.404 0 l 1
 82.6943 549.005 l 1
EndSplineSet
Validated: 1
Ligature2: "AlephLamed2" afii57664 afii57676
Ligature2: "AlephLamed" afii57664 afii57676
LCarets2: 1 -64 
EndChar

StartChar: afii57799
Encoding: 1456 1456 198
Width: 0
VWidth: 1000
Flags: W
HStem: -264.117 82.352<-143.812 -78.9639> -137.353 82.353<-116.866 -52.0195>
VStem: -161.315 126.8
AnchorPoint: "DiaToBase1" 0 0 mark 0
LayerCount: 2
Fore
SplineSet
-143.812 -181.765 m 5
 -61.46 -181.765 l 5
 -78.9639 -264.117 l 5
 -161.315 -264.117 l 5
 -143.812 -181.765 l 5
-116.866 -55 m 1
 -34.5146 -55 l 1
 -52.0195 -137.353 l 1
 -134.371 -137.353 l 1
 -116.866 -55 l 1
EndSplineSet
Validated: 1
EndChar

StartChar: afii57801
Encoding: 1457 1457 199
Width: 0
VWidth: 1000
Flags: W
HStem: -264.117 82.352<-211.458 -146.61 -6.45898 58.3896> -137.353 82.353<-254.22 -189.372 -114.809 -49.96 20.4863 85.334>
AnchorPoint: "DiaToBase3" 0 0 mark 0
LayerCount: 2
Fore
SplineSet
-211.458 -181.765 m 1
 -129.106 -181.765 l 1
 -146.61 -264.117 l 1
 -228.963 -264.117 l 1
 -211.458 -181.765 l 1
-254.22 -55 m 5
 -171.867 -55 l 5
 -189.372 -137.353 l 5
 -271.725 -137.353 l 5
 -254.22 -55 l 5
-114.809 -55 m 1
 -32.4551 -55 l 1
 -49.96 -137.353 l 1
 -132.313 -137.353 l 1
 -114.809 -55 l 1
20.4863 -55 m 1
 102.839 -55 l 1
 85.334 -137.353 l 1
 2.98145 -137.353 l 1
 20.4863 -55 l 1
-6.45898 -181.765 m 1
 75.8936 -181.765 l 1
 58.3896 -264.117 l 1
 -23.9629 -264.117 l 1
 -6.45898 -181.765 l 1
EndSplineSet
Validated: 1
EndChar

StartChar: afii57800
Encoding: 1458 1458 200
Width: 0
VWidth: 1000
Flags: W
HStem: -264.117 82.352<-9.40039 55.4492> -137.353 82.353<-251.279 -58.7842 17.5449 82.3936>
AnchorPoint: "DiaToBase3" 0 0 mark 0
LayerCount: 2
Fore
SplineSet
-251.279 -55 m 5
 -41.2793 -55 l 1
 -58.7842 -137.353 l 1
 -268.784 -137.353 l 5
 -251.279 -55 l 5
17.5449 -55 m 1
 99.8984 -55 l 1
 82.3936 -137.353 l 1
 0.0400391 -137.353 l 1
 17.5449 -55 l 1
-9.40039 -181.765 m 1
 72.9541 -181.765 l 1
 55.4492 -264.117 l 1
 -26.9043 -264.117 l 1
 -9.40039 -181.765 l 1
EndSplineSet
Validated: 1
EndChar

StartChar: afii57802
Encoding: 1459 1459 201
Width: 0
VWidth: 1000
Flags: W
HStem: -264.118 82.353<-4.40039 60.4492> -137.354 82.354<-256.279 -204.961 -122.606 -53.7842 22.5449 87.3936>
AnchorPoint: "DiaToBase3" 0 0 mark 0
LayerCount: 2
Fore
SplineSet
-4.40039 -181.765 m 1
 77.9541 -181.765 l 1
 60.4492 -264.118 l 1
 -21.9043 -264.118 l 1
 -4.40039 -181.765 l 1
22.5449 -55 m 1
 104.898 -55 l 1
 87.3936 -137.354 l 1
 5.04004 -137.354 l 1
 22.5449 -55 l 1
-122.606 -137.354 m 257
 -148.301 -258.235 l 261
 -230.654 -258.235 l 261
 -204.961 -137.354 l 257
 -273.784 -137.354 l 257
 -256.279 -55 l 257
 -36.2793 -55 l 257
 -53.7842 -137.354 l 257
 -122.606 -137.354 l 257
EndSplineSet
Validated: 1
EndChar

StartChar: afii57793
Encoding: 1460 1460 202
Width: 0
VWidth: 1000
Flags: W
HStem: -137.353 82.353<-116.866 -52.0195>
VStem: -134.371 99.8564
AnchorPoint: "DiaToBase1" 0 0 mark 0
LayerCount: 2
Fore
SplineSet
-116.866 -55 m 1
 -34.5146 -55 l 1
 -52.0195 -137.353 l 1
 -134.371 -137.353 l 1
 -116.866 -55 l 1
EndSplineSet
Validated: 1
EndChar

StartChar: afii57794
Encoding: 1461 1461 203
Width: 0
VWidth: 1000
Flags: W
HStem: -137.353 82.353<-186.573 -121.726 -47.1621 17.6875>
VStem: -204.078 239.27
AnchorPoint: "DiaToBase2" 0 0 mark 0
LayerCount: 2
Fore
SplineSet
-186.573 -55 m 5
 -104.221 -55 l 5
 -121.726 -137.353 l 5
 -204.078 -137.353 l 5
 -186.573 -55 l 5
-47.1621 -55 m 1
 35.1924 -55 l 1
 17.6875 -137.353 l 1
 -64.667 -137.353 l 1
 -47.1621 -55 l 1
EndSplineSet
Validated: 1
EndChar

StartChar: afii57795
Encoding: 1462 1462 204
Width: 0
VWidth: 1000
Flags: W
HStem: -264.117 82.352<-143.812 -78.9629> -137.353 82.353<-186.573 -121.726 -47.1621 17.6875>
VStem: -204.078 239.27
AnchorPoint: "DiaToBase2" 0 0 mark 0
LayerCount: 2
Fore
SplineSet
-143.812 -181.765 m 1
 -61.459 -181.765 l 1
 -78.9629 -264.117 l 1
 -161.316 -264.117 l 5
 -143.812 -181.765 l 1
-186.573 -55 m 1
 -104.221 -55 l 1
 -121.726 -137.353 l 1
 -204.078 -137.353 l 1
 -186.573 -55 l 1
-47.1621 -55 m 1
 35.1924 -55 l 1
 17.6875 -137.353 l 1
 -64.667 -137.353 l 1
 -47.1621 -55 l 1
EndSplineSet
Validated: 1
EndChar

StartChar: afii57798
Encoding: 1463 1463 205
Width: 0
VWidth: 1000
Flags: W
HStem: -137.353 82.353<-205.69 36.8047>
VStem: -223.195 277.505
AnchorPoint: "DiaToBase2" 0 0 mark 0
LayerCount: 2
Fore
SplineSet
-205.69 -55 m 5
 54.3096 -55 l 5
 36.8047 -137.353 l 5
 -223.195 -137.353 l 5
 -205.69 -55 l 5
EndSplineSet
Validated: 1
EndChar

StartChar: afii57797
Encoding: 1464 1464 206
Width: 0
VWidth: 1000
Flags: W
HStem: -137.354 82.354<-205.69 -134.371 -52.0186 36.8047>
VStem: -223.195 277.505
AnchorPoint: "DiaToBase2" 0 0 mark 0
LayerCount: 2
Fore
SplineSet
-52.0186 -137.354 m 5
 -74.5244 -243.235 l 5
 -156.877 -243.235 l 5
 -134.371 -137.354 l 5
 -223.195 -137.354 l 5
 -205.69 -55 l 5
 54.3096 -55 l 5
 36.8047 -137.354 l 5
 -52.0186 -137.354 l 5
EndSplineSet
Validated: 1
EndChar

StartChar: afii57806
Encoding: 1465 1465 207
Width: 0
VWidth: 1000
Flags: W
HStem: 660 82.354<52.6162 117.463>
VStem: 35.1113 99.8567
AnchorPoint: "DiaToBaseO" 0 0 mark 0
LayerCount: 2
Fore
SplineSet
52.6162 742.354 m 5
 134.968 742.354 l 5
 117.463 660 l 5
 35.1113 660 l 5
 52.6162 742.354 l 5
EndSplineSet
Validated: 1
EndChar

StartChar: afii57796
Encoding: 1467 1467 208
Width: 0
VWidth: 1000
Flags: W
HStem: -264.117 82.352<-14.4014 50.4492> -197.794 82.353<-129.715 -64.8652> -137.353 82.353<-246.279 -181.432>
VStem: -263.784 331.738
AnchorPoint: "DiaToBaseU" 0 0 mark 0
LayerCount: 2
Fore
SplineSet
-14.4014 -181.765 m 1x90
 67.9541 -181.765 l 1
 50.4492 -264.117 l 1
 -31.9053 -264.117 l 1
 -14.4014 -181.765 l 1x90
-129.715 -115.441 m 5x50
 -47.3613 -115.441 l 5
 -64.8652 -197.794 l 5
 -147.219 -197.794 l 5
 -129.715 -115.441 l 5x50
-246.279 -55 m 1x30
 -163.927 -55 l 1
 -181.432 -137.353 l 1
 -263.784 -137.353 l 1
 -246.279 -55 l 1x30
EndSplineSet
Validated: 1
EndChar

StartChar: afii57807
Encoding: 1468 1468 209
Width: 0
VWidth: 1000
Flags: W
HStem: 256.647 82.353<-33.1191 31.7275>
VStem: -50.624 99.8564
AnchorPoint: "DiaToBaseD" 0 0 mark 0
LayerCount: 2
Fore
SplineSet
-33.1191 339 m 5
 49.2324 339 l 5
 31.7275 256.647 l 5
 -50.624 256.647 l 5
 -33.1191 339 l 5
EndSplineSet
Validated: 1
EndChar

StartChar: afii57839
Encoding: 1469 1469 210
Width: 0
VWidth: 1000
Flags: W
HStem: -248.235 193.235<-116.866 -75.5879>
VStem: -157.939 123.424
LayerCount: 2
Fore
SplineSet
-34.5146 -55 m 5
 -75.5879 -248.235 l 1
 -157.939 -248.235 l 1
 -116.866 -55 l 5
 -34.5146 -55 l 5
EndSplineSet
Validated: 1
EndChar

StartChar: afii57645
Encoding: 1470 1470 211
Width: 551
VWidth: 1000
Flags: W
HStem: 485 115<148.534 505.09>
LayerCount: 2
Fore
SplineSet
124.09 485 m 1
 148.534 600 l 1
 529.534 600 l 5
 505.09 485 l 5
 124.09 485 l 1
EndSplineSet
Validated: 1
EndChar

StartChar: afii57841
Encoding: 1471 1471 212
Width: 0
VWidth: 1000
Flags: W
HStem: 660 82.354<-6.20801 176.287>
VStem: -23.7129 217.505
LayerCount: 2
Fore
SplineSet
-6.20801 742.354 m 5
 193.792 742.354 l 5
 176.287 660 l 5
 -23.7129 660 l 5
 -6.20801 742.354 l 5
EndSplineSet
Validated: 1
EndChar

StartChar: afii57842
Encoding: 1472 1472 213
Width: 297
VWidth: 1000
Flags: W
VStem: -6.25586 309.046
LayerCount: 2
Fore
SplineSet
-6.25586 -100 m 5
 163.79 700 l 1
 302.79 700 l 257
 132.744 -100 l 5
 -6.25586 -100 l 5
EndSplineSet
Validated: 1
EndChar

StartChar: afii57804
Encoding: 1473 1473 214
Width: -6
VWidth: 1000
Flags: W
HStem: 639 82.354<732.975 797.823>
VStem: 715.47 99.858
LayerCount: 2
Fore
SplineSet
732.975 721.354 m 1
 815.328 721.354 l 257
 797.823 639 l 1
 715.47 639 l 1
 732.975 721.354 l 1
EndSplineSet
Validated: 1
EndChar

StartChar: afii57803
Encoding: 1474 1474 215
Width: -6
VWidth: 1000
Flags: W
HStem: 639 82.354<183.976 248.823>
VStem: 166.471 99.857
LayerCount: 2
Fore
SplineSet
183.976 721.354 m 5
 266.328 721.354 l 261
 248.823 639 l 5
 166.471 639 l 5
 183.976 721.354 l 5
EndSplineSet
Validated: 1
EndChar

StartChar: uni05C4
Encoding: 1476 1476 217
Width: 0
VWidth: 1000
Flags: W
HStem: 660 123.531<40.7812 138.051>
VStem: 14.5234 149.786
LayerCount: 2
Fore
SplineSet
40.7812 783.531 m 5
 164.309 783.531 l 5
 138.051 660 l 5
 14.5234 660 l 5
 40.7812 783.531 l 5
EndSplineSet
Validated: 1
EndChar

StartChar: afii57664
Encoding: 1488 1488 218
Width: 698
VWidth: 1000
Flags: W
HStem: 0 21G<7.10645 150.353 412.186 589.421> 580 20G<108.863 286.487 537.375 679.639>
AnchorPoint: "DiaToBaseD" 259 -187 basechar 0
AnchorPoint: "DiaToBaseU" 340 0 basechar 0
AnchorPoint: "DiaToBase3" 360 0 basechar 0
AnchorPoint: "DiaToBase2" 349 0 basechar 0
AnchorPoint: "DiaToBase1" 349 0 basechar 0
LayerCount: 2
Fore
SplineSet
471.489 226.484 m 1
 589.421 0 l 1
 422.403 0 l 1
 274.578 289.375 l 1
 239.469 270.303 213.419 238.619 197.318 204 c 0
 184.919 178 176.923 145 166.72 97 c 2
 146.102 0 l 1
 7.10645 0 l 1
 25.8115 88 l 2
 37.0771 141 51.1562 198 69.1855 232 c 0
 90.4531 272 115.062 300 145.908 325 c 0
 171.766 345.867 196.627 360.5 227.89 372.399 c 1
 108.863 600 l 1
 276.127 600 l 1
 426.006 310.665 l 1
 449.762 323.5 466.928 340.315 479.811 360 c 0
 492.899 380 500.178 405 508.042 442 c 2
 541.626 600 l 1
 679.639 600 l 1
 647.968 451 l 2
 638.828 408 628.442 373 612.034 342 c 0
 596.05 313 575.025 288 545.799 266 c 0
 524.708 249.901 501.982 237.5 471.489 226.484 c 1
EndSplineSet
Validated: 1
Substitution2: "WideLetters" uniFB21
Comment: "%DiaToBase1+AD0A-349+AAoA%DiaToBase2+AD0A-349+AAoA%DiaToBase3+AD0A-360+AAoA%DiaToBaseO+AD0A-0+AAoA%DiaToBaseU+AD0A-340+AAoA" 
EndChar

StartChar: afii57665
Encoding: 1489 1489 219
Width: 583
VWidth: 1000
Flags: W
HStem: 0 115<5.44434 328.444 467.444 509> 485 115<118.534 363.289>
VStem: 386.211 144.391<302.156 457.481>
AnchorPoint: "DiaToBaseD" 223 0 basechar 0
AnchorPoint: "DiaToBaseU" 300 0 basechar 0
AnchorPoint: "DiaToBase3" 309 0 basechar 0
AnchorPoint: "DiaToBase2" 300 0 basechar 0
AnchorPoint: "DiaToBase1" 300 0 basechar 0
LayerCount: 2
Fore
SplineSet
254.09 485 m 6
 94.0898 485 l 1
 118.534 600 l 1
 288.534 600 l 6
 326.534 600 366.896 597 395.046 593 c 4
 430.771 587 462.22 575 486.756 554 c 4
 509.718 535 524.404 510 530.602 478 c 4
 534.713 455 531.849 418 521.008 367 c 6
 467.444 115 l 5
 533.444 115 l 5
 509 0 l 5
 -19 0 l 1
 5.44434 115 l 1
 328.444 115 l 5
 376.481 341 l 6
 382.434 369 387.322 392 386.211 415 c 4
 384.824 432 379.013 447 367.351 458 c 4
 355.689 469 337.177 476 320.027 480 c 4
 301.877 484 280.09 485 254.09 485 c 6
EndSplineSet
Validated: 33
Comment: "%DiaToBase1+AD0A-300+AAoA%DiaToBase2+AD0A-300+AAoA%DiaToBase3+AD0A-309+AAoA%DiaToBaseO+AD0A-0+AAoA%DiaToBaseU+AD0A-300+AAoA" 
EndChar

StartChar: afii57666
Encoding: 1490 1490 220
Width: 491
VWidth: 1000
Flags: W
HStem: 0 21G<-69 126.657 247 388.945> 485 115<151.534 262.457>
AnchorPoint: "DiaToBaseD" 181 0 basechar 0
AnchorPoint: "DiaToBaseO" 50 0 basechar 0
AnchorPoint: "DiaToBaseU" 235 0 basechar 0
AnchorPoint: "DiaToBase3" 240 0 basechar 0
AnchorPoint: "DiaToBase2" 235 0 basechar 0
AnchorPoint: "DiaToBase1" 223 0 basechar 0
LayerCount: 2
Fore
SplineSet
423.283 373 m 2
 387 0 l 1
 247 0 l 1
 260.333 138 l 1
 104 0 l 1
 -69 0 l 1
 148.236 194 l 1
 266.236 194 l 1
 282.732 361 l 2
 285.472 388 285.511 407 282.337 425 c 0
 276.288 453 258.327 472 231.814 479 c 0
 212.877 484 192.09 485 169.09 485 c 2
 127.09 485 l 29
 151.534 600 l 21
 210.534 600 l 2
 256.534 600 293.321 599 327.195 589 c 0
 378.22 575 409.78 540 419.216 495 c 0
 426.351 458 427.424 416 423.283 373 c 2
EndSplineSet
Validated: 33
Comment: "%DiaToBase1+AD0A-223+AAoA%DiaToBase2+AD0A-235+AAoA%DiaToBase3+AD0A-240+AAoA%DiaToBaseO+AD0A-50+AAoA%DiaToBaseU+AD0A-235+AAoA" 
EndChar

StartChar: afii57667
Encoding: 1491 1491 221
Width: 553
VWidth: 1000
Flags: W
HStem: 0 21G<237 380.251> 485 115<73.5342 340.09 479.09 562.09>
AnchorPoint: "DiaToBaseD" 203 0 basechar 0
AnchorPoint: "DiaToBaseU" 300 0 basechar 0
AnchorPoint: "DiaToBase3" 310 0 basechar 0
AnchorPoint: "DiaToBase2" 355 0 basechar 0
AnchorPoint: "DiaToBase1" 365 0 basechar 0
LayerCount: 2
Fore
SplineSet
340.09 485 m 261
 49.0898 485 l 257
 73.5342 600 l 257
 586.534 600 l 261
 562.09 485 l 261
 479.09 485 l 261
 376 0 l 261
 237 0 l 261
 340.09 485 l 261
EndSplineSet
Validated: 1
Substitution2: "WideLetters" uniFB22
Comment: "%DiaToBase1+AD0A-365+AAoA%DiaToBase2+AD0A-355+AAoA%DiaToBase3+AD0A-310+AAoA%DiaToBaseO+AD0A-0+AAoA%DiaToBaseU+AD0A-300+AAoA" 
EndChar

StartChar: afii57668
Encoding: 1492 1492 222
Width: 653
VWidth: 1000
Flags: W
HStem: 0 21G<1 144.251 395 538.251> 485 115<128.534 435.39>
VStem: 472.172 145.88<285 450.34>
AnchorPoint: "DiaToBaseD" 332 0 basechar 0
AnchorPoint: "DiaToBaseU" 315 0 basechar 0
AnchorPoint: "DiaToBase3" 331 0 basechar 0
AnchorPoint: "DiaToBase2" 331 0 basechar 0
AnchorPoint: "DiaToBase1" 331 0 basechar 0
LayerCount: 2
Fore
SplineSet
305.09 485 m 258
 104.09 485 l 257
 128.534 600 l 257
 350.534 600 l 2
 392.534 600 437.108 598 468.046 593 c 0
 507.771 587 542.582 572 569.693 549 c 0
 595.229 528 611.491 501 618.052 466 c 0
 622.737 441 619.022 400 607.119 344 c 258
 534 0 l 257
 395 0 l 257
 459.617 304 l 258
 467.057 339 474.221 368 472.172 396 c 0
 470.849 418 462.887 437 448.863 451 c 0
 433.839 465 410.965 475 388.814 479 c 0
 365.877 484 337.09 485 305.09 485 c 258
1 0 m 5
 68.168 316 l 5
 207.168 316 l 5
 140 0 l 5
 1 0 l 5
EndSplineSet
Validated: 33
Substitution2: "WideLetters" uniFB23
Comment: "%DiaToBase1+AD0A-331+AAoA%DiaToBase2+AD0A-331+AAoA%DiaToBase3+AD0A-331+AAoA%DiaToBaseO+AD0A-0+AAoA%DiaToBaseU+AD0A-315+AAoA" 
EndChar

StartChar: afii57669
Encoding: 1493 1493 223
Width: 274
VWidth: 1000
Flags: W
HStem: 0 21G<1 144.251> 580 20G<124.283 267.534>
VStem: 1 266.534
AnchorPoint: "DiaToBaseD" 71 0 basechar 0
AnchorPoint: "DiaToBaseU" 125 0 basechar 0
AnchorPoint: "DiaToBase3" 130 0 basechar 0
AnchorPoint: "DiaToBase2" 130 0 basechar 0
AnchorPoint: "DiaToBase1" 135 0 basechar 0
LayerCount: 2
Fore
SplineSet
1 0 m 1
 128.534 600 l 1
 267.534 600 l 257
 140 0 l 5
 1 0 l 1
EndSplineSet
Validated: 1
Comment: "%DiaToBase1+AD0A-135+AAoA%DiaToBase2+AD0A-130+AAoA%DiaToBase3+AD0A-130+AAoA%DiaToBaseO+AD0A-0+AAoA%DiaToBaseU+AD0A-125+AAoA" 
EndChar

StartChar: afii57670
Encoding: 1494 1494 224
Width: 406
VWidth: 1000
Flags: W
HStem: 0 21G<66 209.251> 485 115<108.534 169.09 308.09 391.09>
VStem: 66 349.534
AnchorPoint: "DiaToBaseD" 71 0 basechar 0
AnchorPoint: "DiaToBaseU" 190 0 basechar 0
AnchorPoint: "DiaToBase3" 198 0 basechar 0
AnchorPoint: "DiaToBase2" 195 0 basechar 0
AnchorPoint: "DiaToBase1" 198 0 basechar 0
LayerCount: 2
Fore
SplineSet
169.09 485 m 257
 84.0898 485 l 257
 108.534 600 l 257
 415.534 600 l 257
 391.09 485 l 257
 308.09 485 l 257
 205 0 l 261
 66 0 l 257
 169.09 485 l 257
EndSplineSet
Validated: 1
Comment: "%DiaToBase1+AD0A-198+AAoA%DiaToBase2+AD0A-195+AAoA%DiaToBase3+AD0A-198+AAoA%DiaToBaseO+AD0A-0+AAoA%DiaToBaseU+AD0A-190+AAoA" 
EndChar

StartChar: afii57671
Encoding: 1495 1495 225
Width: 688
VWidth: 1000
Flags: W
HStem: 0 21G<16 159.251 430 573.251> 485 115<258.09 489.289>
VStem: 512.211 144.391<303.922 457.481>
AnchorPoint: "DiaToBaseD" 354 0 basechar 0
AnchorPoint: "DiaToBaseU" 356 0 basechar 0
AnchorPoint: "DiaToBase3" 356 0 basechar 0
AnchorPoint: "DiaToBase2" 356 0 basechar 0
AnchorPoint: "DiaToBase1" 356 0 basechar 0
LayerCount: 2
Fore
SplineSet
380.09 485 m 2
 258.09 485 l 1
 155 0 l 1
 16 0 l 1
 143.534 600 l 5
 414.534 600 l 2
 452.534 600 492.896 597 521.046 593 c 0
 556.771 587 588.22 575 612.756 554 c 0
 635.718 535 650.404 510 656.602 478 c 0
 660.713 455 657.849 418 647.008 367 c 2
 569 0 l 1
 430 0 l 1
 502.481 341 l 2
 508.434 369 513.322 392 512.211 415 c 0
 510.824 432 505.013 447 493.351 458 c 0
 481.689 469 463.177 476 446.027 480 c 0
 427.877 484 406.09 485 380.09 485 c 2
EndSplineSet
Validated: 33
Comment: "%DiaToBase1+AD0A-356+AAoA%DiaToBase2+AD0A-356+AAoA%DiaToBase3+AD0A-356+AAoA%DiaToBaseO+AD0A-0+AAoA%DiaToBaseU+AD0A-356+AAoA" 
EndChar

StartChar: afii57672
Encoding: 1496 1496 226
Width: 659
VWidth: 1000
Flags: W
HStem: -8 115<216.337 386.132> 488 120<359.331 474.514> 580 20G<120.285 263.536>
AnchorPoint: "DiaToBaseD" 341 0 basechar 0
AnchorPoint: "DiaToBaseU" 337 0 basechar 0
AnchorPoint: "DiaToBase3" 337 0 basechar 0
AnchorPoint: "DiaToBase2" 340 0 basechar 0
AnchorPoint: "DiaToBase1" 340 0 basechar 0
LayerCount: 2
Fore
SplineSet
359.331 603.75 m 17xc0
 390.877 606.719 425.682 608 455.129 608 c 0xc0
 559.918 608 622.154 564 636.513 490 c 0
 644.211 453 636.509 407 627.368 364 c 2
 612.489 294 l 2
 599.312 232 586.558 172 544.99 118 c 0
 489.012 45 380.22 -8 271.279 -8 c 0
 162.342 -8 77.1182 45 52.1729 118 c 0
 33.5615 172 46.3154 232 59.4932 294 c 2
 124.536 600 l 1
 263.536 600 l 1xa0
 189.354 251 l 2
 182.977 221 177.025 193 186.597 167 c 0
 198.569 132 241.783 107 295.703 107 c 0
 349.625 107 403.468 132 430.319 167 c 0
 450.943 193 457.973 221 464.35 251 c 2
 490.069 372 l 2
 494.32 392 496.841 414 493.116 432 c 0
 485.459 467 454.335 488 402.571 488 c 0
 377.875 488 354.515 487 333.399 481.75 c 9
 359.331 603.75 l 17xc0
EndSplineSet
Validated: 33
Comment: "%DiaToBase1+AD0A-340+AAoA%DiaToBase2+AD0A-340+AAoA%DiaToBase3+AD0A-337+AAoA%DiaToBaseO+AD0A-0+AAoA%DiaToBaseU+AD0A-337+AAoA" 
EndChar

StartChar: afii57673
Encoding: 1497 1497 227
Width: 274
VWidth: 1000
Flags: W
HStem: 294 306
VStem: 63.4912 204.043
AnchorPoint: "DiaToBaseD" 71 98 basechar 0
AnchorPoint: "DiaToBaseU" 134 0 basechar 0
AnchorPoint: "DiaToBase3" 134 0 basechar 0
AnchorPoint: "DiaToBase2" 134 0 basechar 0
AnchorPoint: "DiaToBase1" 134 0 basechar 0
LayerCount: 2
Fore
SplineSet
128.534 600 m 1
 267.534 600 l 1
 207.168 316 l 1
 63.4912 294 l 1
 128.534 600 l 1
EndSplineSet
Validated: 1
Comment: "%DiaToBase1+AD0A-134+AAoA%DiaToBase2+AD0A-134+AAoA%DiaToBase3+AD0A-134+AAoA%DiaToBaseO+AD0A-0+AAoA%DiaToBaseU+AD0A-134+AAoA" 
EndChar

StartChar: afii57636
Encoding: 8362 8362 228
Width: 1104
VWidth: 1000
Flags: W
HStem: 0 115<470.444 768.233> 485 115<303.09 623.41>
VStem: 637.068 139.832<307.139 465.042>
LayerCount: 2
Fore
SplineSet
995.109 306.113 m 2
 980.965 239.568 964.983 190.502 948.569 160.285 c 0
 925.202 118.241 896.02 85.3965 860.741 60.4336 c 0
 822.686 32.8447 781.59 17.0781 738.844 9.19434 c 0
 705.532 3.94043 659.182 0 617 0 c 2
 307 0 l 1
 387.347 378 l 1
 526.347 378 l 1
 470.444 115 l 1
 636.444 115 l 2
 666.891 115.043 692.89 116.189 716.148 120.955 c 0
 738.231 125.713 763.414 134.046 782.587 147.146 c 0
 801.756 160.24 816.091 178.098 826.242 198.338 c 0
 839.091 225.718 844.911 253.102 851.997 286.438 c 2
 918.534 600 l 1
 1057.53 600 l 1
 995.109 306.113 l 2
629.98 380.997 m 18
 634.274 401.2 637.803 417.797 637.068 434.391 c 0
 636.132 446.657 632.045 457.479 623.8 465.416 c 0
 615.556 473.355 602.44 478.405 590.283 481.289 c 0
 577.415 484.178 561.959 484.898 543.512 484.898 c 10
 303.09 485 l 1
 200 0 l 1
 61 0 l 1
 188.534 600 l 1
 571.496 600.237 l 18
 604.388 600.237 639.223 597.165 663.453 593.067 c 0
 694.171 586.921 720.987 574.627 741.517 553.115 c 0
 760.749 533.651 772.616 508.041 776.9 475.259 c 0
 779.683 451.697 775.954 413.793 764.85 361.55 c 10
 734.337 218 l 1
 595.337 218 l 1
 629.98 380.997 l 18
EndSplineSet
Validated: 33
EndChar

StartChar: Euro
Encoding: 8364 8364 229
Width: 663
VWidth: 1000
Flags: W
HStem: -20 130<298.865 477.132> 250 68<72.5928 106.139 252.593 430.139> 386 68<101.501 126.047 295.501 508.047> 594 130<393.218 587.189>
VStem: 106.139 143<161.584 250 318 385.254>
LayerCount: 2
Fore
SplineSet
106.139 250 m 1
 34.1387 250 l 1
 72.5928 318 l 1
 112.593 318 l 1
 113.568 332 115.481 341 118.032 353 c 0
 120.583 365 122.496 374 126.047 386 c 1
 63.0469 386 l 1
 101.501 454 l 1
 149.501 454 l 1
 222.848 625 348.891 724 492.891 724 c 0
 562.891 724 619.978 715 670.263 674 c 1
 605.394 557 l 1
 572.559 586 537.259 594 483.259 594 c 0
 391.259 594 325.718 535 295.501 454 c 1
 546.501 454 l 1
 508.047 386 l 1
 268.047 386 l 1
 262.646 370 259.308 359 256.332 345 c 0
 254.206 335 252.719 328 252.593 318 c 1
 469.593 318 l 1
 430.139 250 l 1
 249.139 250 l 1
 247.835 178 285.381 110 377.381 110 c 0
 421.188 110 454.927 115.265 490.214 132.734 c 9
 517.83 22.7227 l 17
 455.058 -12.084 397.399 -20 331.749 -20 c 0
 187.749 -20 106.792 79 106.139 250 c 1
EndSplineSet
Validated: 33
EndChar

StartChar: SF110000
Encoding: 9474 9474 230
Width: 264
VWidth: 1000
Flags: W
LayerCount: 2
Fore
SplineSet
-65.7666 -300 m 1
 189.301 900 l 1
 328.301 900 l 1
 73.2334 -300 l 1
 -65.7666 -300 l 1
EndSplineSet
Validated: 1
EndChar

StartChar: uni25CC
Encoding: 9676 9676 231
Width: 615
VWidth: 1000
Flags: W
HStem: 27.0811 101.675<226.835 311.595> 471.244 101.675<299.633 384.393> 520.743 20G<190.18 219.376 485.692 518.541>
VStem: 18.3379 107.025<257.62 341.108> 485.865 107.025<258.889 342.38>
LayerCount: 2
Fore
SplineSet
34.002 154.777 m 1x98
 135.19 208.88 l 1
 144.574 185.114 161.637 163.415 182.387 148.945 c 1
 109.22 59.2568 l 1
 76.2334 82.2617 48.9932 116.809 34.002 154.777 c 1x98
502.008 540.743 m 1xb8
 535.074 517.682 562.271 483.099 577.225 445.223 c 1
 476.036 391.12 l 1
 466.631 414.944 449.538 436.62 428.842 451.055 c 1
 502.008 540.743 l 1xb8
564.176 232.457 m 1
 467.849 257.62 l 1
 480.188 284.631 486.724 315.303 485.865 342.38 c 1
 592.89 367.543 l 1
 594.253 324.494 583.891 275.612 564.176 232.457 c 1
18.3379 232.457 m 1
 16.9697 275.612 27.3867 324.494 47.0518 367.543 c 1
 143.379 342.38 l 1
 131.009 315.303 124.505 284.631 125.363 257.62 c 1
 18.3379 232.457 l 1
399.664 59.2568 m 1
 364.626 148.945 l 1
 391.459 163.38 417.767 185.056 437.3 208.88 c 1
 515.489 154.777 l 1
 484.434 116.901 442.535 82.3184 399.664 59.2568 c 1
95.7383 445.223 m 1
 126.87 483.191 168.797 517.738 211.562 540.743 c 1
 246.602 451.055 l 1
 219.701 436.585 193.414 414.886 173.927 391.12 c 1
 95.7383 445.223 l 1
180.061 27.0811 m 1
 226.835 128.756 l 1
 252.443 122.159 283.111 122.142 311.595 128.756 c 1
 315.146 27.0811 l 1
 269.862 16.5664 220.975 16.54 180.061 27.0811 c 1
296.082 572.919 m 1xd8
 341.478 583.46 390.354 583.434 431.168 572.919 c 1
 384.393 471.244 l 1
 358.721 477.858 328.046 477.841 299.633 471.244 c 1
 296.082 572.919 l 1xd8
EndSplineSet
Validated: 33
EndChar

StartChar: uniFB1E
Encoding: 64286 64286 236
Width: 0
VWidth: 1000
Flags: W
HStem: 659.941 84.059<23.1138 150.454>
VStem: -40.9141 267.986
LayerCount: 2
Fore
SplineSet
42.3252 774.5 m 1
 51.0156 756.081 69.6318 744 93.6484 744 c 0
 117.882 744 141.846 756.3 158.384 775 c 1
 227.072 739 l 1
 190.991 691.854 133.984 659.941 76.2734 659.941 c 0
 18.5654 659.941 -24.874 691.854 -40.9141 739 c 1
 42.3252 774.5 l 1
EndSplineSet
Validated: 1
EndChar

StartChar: uniFB20
Encoding: 64288 64288 238
Width: 625
VWidth: 1000
Flags: W
HStem: 0 115<10.4443 108.944 249.851 337.895> 580 20G<103.534 243.794 495.847 643.534>
VStem: 108.944 140.907<115 600>
AnchorPoint: "DiaToBaseU" 310 0 basechar 0
AnchorPoint: "DiaToBase3" 310 0 basechar 0
AnchorPoint: "DiaToBase2" 300 0 basechar 0
AnchorPoint: "DiaToBase1" 300 0 basechar 0
LayerCount: 2
Fore
SplineSet
249.851 115 m 1
 265.407 115 279.15 116.36 293.473 119.76 c 0
 312.02 123.84 328.568 131.319 343.803 142.2 c 0
 358.354 153.08 370.085 166.68 378.025 181.64 c 0
 386.11 197.279 392.859 217.699 399.584 241.479 c 2
 501.534 600 l 1
 643.534 600 l 17
 544.103 249.301 l 2
 531.16 203.416 517.704 164.7 495.18 130.5 c 0
 475.097 99 443.955 70.2002 406.425 48.6006 c 0
 368.892 27 328.1 14.4004 283.188 7.2002 c 0
 249.507 1.80078 218.479 0 177.078 0 c 2
 -14 0 l 1
 10.4443 115 l 1
 108.944 115 l 1
 103.534 600 l 1
 243.534 600 l 1
 249.851 115 l 1
EndSplineSet
Validated: 1
Comment: "%DiaToBase1+AD0A-300+AAoA%DiaToBase2+AD0A-300+AAoA%DiaToBase3+AD0A-310+AAoA%DiaToBaseO+AD0A-0+AAoA%DiaToBaseU+AD0A-310+AAoA" 
EndChar

StartChar: uniFB21
Encoding: 64289 64289 239
Width: 1229
VWidth: 1000
Flags: W
HStem: 0 21G<-8.89355 134.353 849.41 1120> 580 20G<108.534 379.071 1093.18 1236.42>
LayerCount: 2
Fore
SplineSet
836.189 222 m 1
 925.338 249.845 988.385 296.236 1022.56 346.78 c 0
 1049.05 384.74 1061.92 432.92 1076.82 503 c 2
 1097.43 600 l 1
 1236.42 600 l 1
 1218.01 513.367 l 2
 1203.7 446.058 1185.34 373.667 1159.74 330.487 c 0
 1129.54 279.688 1093.62 244.127 1048.06 212.377 c 0
 1009.87 185.876 972.19 167.111 925.309 152 c 1
 1120 0 l 1
 875 0 l 1
 391.345 378 l 1
 302.195 350.155 239.149 303.764 204.977 253.22 c 0
 178.488 215.26 165.616 167.08 150.72 97 c 2
 130.102 0 l 1
 -8.89355 0 l 1
 9.52051 86.6328 l 2
 23.8281 153.942 42.2002 226.333 67.7979 269.513 c 0
 97.998 320.312 133.917 355.873 179.474 387.623 c 0
 217.669 414.124 255.338 432.889 302.226 448 c 1
 108.534 600 l 1
 353.534 600 l 1
 836.189 222 l 1
EndSplineSet
Validated: 1
Comment: "%DiaToBase1+AD0A-600+AAoA%DiaToBase2+AD0A-600+AAoA%DiaToBase3+AD0A-600+AAoA%DiaToBaseO+AD0A-0+AAoA%DiaToBaseU+AD0A-600+AAoA" 
EndChar

StartChar: uniFB22
Encoding: 64290 64290 240
Width: 1091
VWidth: 1000
Flags: W
HStem: 0 21G<775.315 918.566> 485 115<73.5342 878.405 1017.41 1100.41>
LayerCount: 2
Fore
SplineSet
878.405 485 m 261
 49.0898 485 l 257
 73.5342 600 l 257
 1124.85 600 l 261
 1100.41 485 l 261
 1017.41 485 l 261
 914.315 0 l 261
 775.315 0 l 261
 878.405 485 l 261
EndSplineSet
Validated: 1
Comment: "%DiaToBase1+AD0A-570+AAoA%DiaToBase2+AD0A-570+AAoA%DiaToBase3+AD0A-570+AAoA%DiaToBaseO+AD0A-0+AAoA%DiaToBaseU+AD0A-570+AAoA" 
EndChar

StartChar: uniFB23
Encoding: 64291 64291 241
Width: 1204
VWidth: 1000
Flags: W
HStem: 0 21G<1 144.251 946.25 1089.5> 485 115<128.534 986.639>
VStem: 1023.42 145.88<285 450.34>
LayerCount: 2
Fore
SplineSet
856.34 485 m 262
 104.09 485 l 257
 128.534 600 l 257
 901.784 600 l 6
 943.784 600 988.358 598 1019.3 593 c 4
 1059.02 587 1093.83 572 1120.94 549 c 4
 1146.48 528 1162.74 501 1169.3 466 c 4
 1173.99 441 1170.27 400 1158.37 344 c 262
 1085.25 0 l 261
 946.25 0 l 261
 1010.87 304 l 262
 1018.31 339 1025.47 368 1023.42 396 c 4
 1022.1 418 1014.14 437 1000.11 451 c 4
 985.089 465 962.215 475 940.064 479 c 4
 917.127 484 888.34 485 856.34 485 c 262
1 0 m 1
 68.168 316 l 1
 207.168 316 l 1
 140 0 l 1
 1 0 l 1
EndSplineSet
Validated: 33
Comment: "%DiaToBase1+AD0A-596+AAoA%DiaToBase2+AD0A-596+AAoA%DiaToBase3+AD0A-596+AAoA%DiaToBaseO+AD0A-0+AAoA%DiaToBaseU+AD0A-596+AAoA" 
EndChar

StartChar: uniFB24
Encoding: 64292 64292 242
Width: 1097
VWidth: 1000
Flags: W
HStem: 0 115<15.4443 835.392> 485 115<118.534 904.334>
VStem: 941.598 140.632<262.543 449.341>
LayerCount: 2
Fore
SplineSet
707 0 m 6
 -9 0 l 1
 15.4443 115 l 1
 725.444 115 l 6
 748.444 115 769.869 117 787.72 121 c 4
 811.995 127 834.908 136 854.884 150 c 4
 874.859 164 888.473 181 899.724 201 c 4
 910.975 221 919.202 255 924.516 280 c 6
 933.018 320 l 6
 938.332 345 944.347 378 941.598 398 c 4
 938.849 418 932.675 436 918.65 450 c 4
 904.626 464 885.539 473 863.814 479 c 4
 847.665 483 827.09 485 804.09 485 c 6
 94.0898 485 l 1
 118.534 600 l 1
 834.534 600 l 6
 873.534 600 904.108 598 934.834 592 c 4
 976.133 584 1009.73 568 1035.42 543 c 4
 1061.89 517 1077.09 485 1082.23 448 c 4
 1087.72 408 1078.46 355 1068.47 308 c 6
 1064.85 291 l 6
 1054.86 244 1041.81 192 1019.31 152 c 4
 998.444 115 969.643 83 932.115 57 c 4
 895.802 32 855.4 16 810.7 8 c 4
 777.425 2 745 0 707 0 c 6
EndSplineSet
Validated: 33
Comment: "%DiaToBase1+AD0A-567+AAoA%DiaToBase2+AD0A-567+AAoA%DiaToBase3+AD0A-567+AAoA%DiaToBaseO+AD0A-0+AAoA%DiaToBaseU+AD0A-567+AAoA" 
EndChar

StartChar: uniFB25
Encoding: 64293 64293 243
Width: 1153
VWidth: 1000
Flags: W
HStem: 0 115<444.694 784.562> 485 115<242.534 997.09>
LayerCount: 2
Fore
SplineSet
997.09 484.998 m 1
 79.0898 485 l 1
 135.417 750 l 1
 274.417 750 l 1
 242.534 600 l 1
 1192.03 600 l 1
 1055.27 300 l 2
 1021.1 225.057 985.722 161 953.22 121 c 0
 922.354 84 888.979 54 848.302 32 c 0
 811.051 12 766.5 0 712.5 0 c 2
 420.25 0 l 29
 444.694 115 l 29
 696.448 115 l 18
 739.449 115 771.211 128 794.824 145 c 0
 819.438 162 845.178 189 863.704 215 c 0
 887.506 247 905.784 284.956 922.234 321 c 2
 997.09 484.998 l 1
EndSplineSet
Validated: 1
Comment: "%DiaToBase1+AD0A-572+AAoA%DiaToBase2+AD0A-572+AAoA%DiaToBase3+AD0A-572+AAoA%DiaToBaseO+AD0A-0+AAoA%DiaToBaseU+AD0A-572+AAoA" 
EndChar

StartChar: uniFB26
Encoding: 64294 64294 244
Width: 1215
VWidth: 1000
Flags: W
HStem: 0 115<179.444 981.944> 485 115<258.09 1015.78>
VStem: 1039.71 144.39<303.922 457.481>
LayerCount: 2
Fore
SplineSet
981.944 115 m 5
 1029.98 341 l 6
 1035.93 369 1040.82 392 1039.71 415 c 4
 1038.32 432 1032.51 447 1020.85 458 c 4
 1009.19 469 990.677 476 973.527 480 c 4
 955.377 484 933.59 485 907.59 485 c 6
 258.09 485 l 1
 179.444 115 l 1
 981.944 115 l 5
1096.5 0 m 13
 16 0 l 17
 143.534 600 l 1
 942.034 600 l 6
 980.034 600 1020.4 597 1048.55 593 c 4
 1084.27 587 1115.72 575 1140.26 554 c 4
 1163.22 535 1177.9 510 1184.1 478 c 4
 1188.21 455 1185.35 418 1174.51 367 c 6
 1096.5 0 l 13
EndSplineSet
Validated: 33
Comment: "%DiaToBase1+AD0A-597+AAoA%DiaToBase2+AD0A-597+AAoA%DiaToBase3+AD0A-597+AAoA%DiaToBaseO+AD0A-0+AAoA%DiaToBaseU+AD0A-597+AAoA" 
EndChar

StartChar: uni0000
Encoding: 0 0 250
Width: 736
VWidth: 1000
Flags: W
HStem: -80 90<88.126 524.126> 590 90<211.408 647.408>
LayerCount: 2
Fore
SplineSet
211.408 590 m 1
 88.126 10 l 1
 524.126 10 l 5
 647.408 590 l 5
 211.408 590 l 1
140.538 680 m 1
 756.538 680 l 5
 594.995 -80 l 5
 -21.0049 -80 l 1
 140.538 680 l 1
EndSplineSet
Validated: 1
EndChar

StartChar: uni05A2
Encoding: 1442 1442 251
Width: 0
VWidth: 1000
Flags: W
HStem: -258 198
VStem: -201.706 73.655<-107.773 -60> -25.4561 73.6553<-96.4491 -60>
LayerCount: 2
Fore
SplineSet
-60.8115 -177.89 m 1
 -77.8398 -258 l 1
 -159.84 -258 l 1
 -142.812 -177.89 l 1
 -187.685 -160.659 -213.171 -113.938 -201.706 -60 c 9
 -128.051 -60 l 17
 -133.982 -87.9062 -115.563 -111.297 -87.6572 -111.297 c 0
 -59.751 -111.297 -31.3877 -87.9062 -25.4561 -60 c 9
 48.1992 -60 l 17
 36.7344 -113.938 -8.61426 -160.659 -60.8115 -177.89 c 1
EndSplineSet
Validated: 33
EndChar

StartChar: uni05BA
Encoding: 1466 1466 252
Width: 0
VWidth: 1000
Flags: W
HStem: 660 82.354<52.6162 117.463>
VStem: 35.1113 99.8567
LayerCount: 2
Fore
SplineSet
52.6162 742.354 m 5
 134.968 742.354 l 5
 117.463 660 l 5
 35.1113 660 l 5
 52.6162 742.354 l 5
EndSplineSet
Validated: 1
EndChar

StartChar: uni05C5
Encoding: 1477 1477 253
Width: 0
VWidth: 1000
Flags: W
HStem: -178.539 123.529<-137.453 -40.1826>
VStem: -163.71 149.784
LayerCount: 2
Fore
SplineSet
-137.453 -55.0098 m 5
 -13.9258 -55.0098 l 5
 -40.1826 -178.539 l 5
 -163.71 -178.539 l 5
 -137.453 -55.0098 l 5
EndSplineSet
Validated: 1
EndChar

StartChar: uni05C6
Encoding: 1478 1478 254
Width: 406
VWidth: 1000
Flags: W
HStem: 0 115<164.444 287> 485 115<263.472 379.09>
LayerCount: 2
Fore
SplineSet
344.09 485 m 6
 329.09 485 316.877 484 305.239 481 c 4
 290.602 478 277.327 472 265.414 463 c 4
 253.501 454 244.375 444 237.824 432 c 4
 231.273 420 224.811 399 221.622 384 c 6
 164.444 115 l 5
 311.444 115 l 5
 287 0 l 5
 1 0 l 5
 83.8975 390 l 6
 90.9111 423 99.9883 461 116.152 490 c 4
 130.892 517 151.993 541 178.819 559 c 4
 204.646 577 234.408 590 266.471 595 c 4
 290.321 599 311.534 600 340.534 600 c 6
 403.534 600 l 13
 379.09 485 l 21
 344.09 485 l 6
EndSplineSet
Validated: 1
Comment: "%DiaToBase1+AD0A-212+AAoA%DiaToBase2+AD0A-212+AAoA%DiaToBase3+AD0A-212+AAoA%DiaToBaseO+AD0A-0+AAoA%DiaToBaseU+AD0A-212+AAoA" 
EndChar

StartChar: uni05C7
Encoding: 1479 1479 255
Width: 0
VWidth: 1000
Flags: W
HStem: -137.354 82.354<-185.69 -134.371 -52.0186 16.8047>
VStem: -203.195 237.505
AnchorPoint: "DiaToBase2" 0 0 mark 0
LayerCount: 2
Fore
SplineSet
-52.0186 -137.354 m 1
 -86.2148 -298.235 l 1
 -168.567 -298.235 l 5
 -134.371 -137.354 l 1
 -203.195 -137.354 l 1
 -185.69 -55 l 1
 34.3096 -55 l 1
 16.8047 -137.354 l 1
 -52.0186 -137.354 l 1
EndSplineSet
Validated: 1
EndChar

StartChar: ellipsis
Encoding: 8230 8230 258
Width: 906
VWidth: 1000
Flags: W
HStem: 0 146<31.0332 150 331.033 450 631.033 750>
LayerCount: 2
Fore
SplineSet
781.033 146 m 5
 750 0 l 5
 600 0 l 5
 631.033 146 l 5
 781.033 146 l 5
481.033 146 m 1
 450 0 l 1
 300 0 l 1
 331.033 146 l 1
 481.033 146 l 1
181.033 146 m 1
 150 0 l 1
 0 0 l 1
 31.0332 146 l 1
 181.033 146 l 1
EndSplineSet
Validated: 1
EndChar

StartChar: minus
Encoding: 8722 8722 259
Width: 663
VWidth: 1000
Flags: W
HStem: 282 119<111.235 568.941>
LayerCount: 2
Fore
SplineSet
568.941 282 m 1
 85.9414 282 l 1
 111.235 401 l 5
 594.235 401 l 1
 568.941 282 l 1
EndSplineSet
Validated: 1
EndChar

